<svg xmlns="http://www.w3.org/2000/svg" xmlns:xlink="http://www.w3.org/1999/xlink" width="500" zoomAndPan="magnify" viewBox="0 0 375 374.999991" height="500" preserveAspectRatio="xMidYMid meet" version="1.0"><defs><g/><clipPath id="351d965b6e"><path d="M 22 0 L 362 0 L 362 342 L 22 342 Z M 22 0 " clip-rule="nonzero"/></clipPath><clipPath id="6ce7988c0d"><path d="M 263.5625 -58.46875 L 419.597656 248.386719 L 120.765625 400.34375 L -35.269531 93.488281 Z M 263.5625 -58.46875 " clip-rule="nonzero"/></clipPath><clipPath id="5bee41fd5a"><path d="M 263.5625 -58.46875 L 419.597656 248.386719 L 120.765625 400.34375 L -35.269531 93.488281 Z M 263.5625 -58.46875 " clip-rule="nonzero"/></clipPath><clipPath id="0c0cdac8f8"><path d="M 263.5625 -58.46875 L 419.597656 248.386719 L 120.765625 400.34375 L -35.269531 93.488281 Z M 263.5625 -58.46875 " clip-rule="nonzero"/></clipPath><clipPath id="f02865649c"><path d="M 318.035156 60.851562 C 255.402344 -10.730469 147.976562 -19.53125 78.558594 41.226562 C 63.566406 54.351562 51.398438 69.957031 42.101562 87.464844 L 42.546875 87.699219 L 42.101562 87.464844 C 26.175781 117.457031 19.890625 151.515625 23.917969 185.960938 C 28.035156 221.171875 42.714844 254.078125 66.378906 281.121094 C 128.949219 352.632812 236.269531 361.425781 305.617188 300.726562 C 375.035156 239.96875 380.667969 132.429688 318.035156 60.851562 Z M 60.40625 248.980469 C 63.054688 252.011719 65.371094 254.378906 67.113281 256.066406 C 78.730469 267.296875 94.789062 268.160156 111.792969 269.070312 C 131.429688 270.121094 153.6875 271.316406 172.828125 289.125 C 189.03125 304.210938 204.945312 317.410156 222.941406 323.414062 C 204.695312 317.980469 188.644531 305.605469 172.855469 291.867188 C 153.816406 275.296875 132.046875 273.398438 112.835938 271.71875 C 95.601562 270.214844 79.324219 268.792969 67.5625 257.226562 C 57.070312 246.910156 47.210938 233.523438 39.679688 217.839844 C 46.476562 231.566406 54.320312 242.03125 60.40625 248.980469 Z M 52.976562 238.234375 C 55.351562 241.425781 57.652344 244.242188 59.75 246.640625 C 62.699219 250.015625 65.273438 252.605469 67.160156 254.394531 C 78.492188 265.140625 94.253906 265.453125 110.933594 265.78125 C 131.085938 266.179688 153.917969 266.628906 173.261719 285.84375 C 189.144531 301.625 203.878906 315.304688 221.449219 322.125 C 204.242188 315.921875 188.90625 303.148438 173.292969 288.617188 C 153.972656 270.636719 131.578125 269.4375 111.824219 268.378906 C 94.953125 267.472656 79.023438 266.621094 67.589844 255.566406 C 65.652344 253.6875 59.757812 247.71875 52.976562 238.234375 Z M 172.414062 295.109375 C 153.722656 279.945312 132.625 277.398438 114.011719 275.148438 C 96.347656 273.023438 79.667969 271.003906 67.535156 258.882812 C 58.089844 249.445312 49.179688 237.488281 41.992188 223.652344 C 48.4375 235.726562 55.507812 245 61.003906 251.277344 C 63.378906 253.992188 65.460938 256.148438 67.0625 257.726562 C 79.003906 269.476562 95.414062 270.910156 112.773438 272.425781 C 131.875 274.09375 153.523438 275.980469 172.386719 292.394531 C 188.609375 306.515625 205.105469 319.199219 223.953125 324.476562 C 204.816406 319.777344 188.175781 307.898438 172.410156 295.105469 Z M 224.570312 325.40625 C 204.667969 321.402344 187.523438 310.097656 171.96875 298.359375 C 153.722656 284.582031 134.230469 281.59375 115.378906 278.699219 C 97.214844 275.910156 80.058594 273.277344 67.5 260.542969 C 58.078125 250.988281 49.195312 238.941406 42.019531 225.039062 C 48.671875 237.601562 55.984375 247.183594 61.554688 253.546875 C 63.667969 255.96875 65.539062 257.929688 67.019531 259.40625 C 79.332031 271.710938 96.136719 273.738281 113.925781 275.882812 C 133.351562 278.226562 153.429688 280.652344 171.953125 295.683594 C 188.019531 308.722656 204.996094 320.816406 224.570312 325.414062 Z M 61.75 255.457031 C 63.445312 257.394531 65.1875 259.269531 66.960938 261.070312 C 79.699219 273.980469 96.976562 276.636719 115.265625 279.441406 C 134.023438 282.324219 153.421875 285.300781 171.511719 298.960938 C 186.0625 309.941406 203.367188 321.464844 223.042969 325.894531 C 204.328125 322.355469 187.429688 312.742188 171.519531 301.605469 C 153.820312 289.214844 135.097656 285.742188 116.992188 282.382812 C 98.234375 278.902344 80.515625 275.613281 67.464844 262.203125 C 57.140625 251.597656 47.433594 238.039062 39.941406 222.300781 C 45.839844 234.429688 53.257812 245.757812 61.75 255.464844 Z M 62.214844 257.644531 C 63.746094 259.394531 65.316406 261.097656 66.914062 262.738281 C 80.136719 276.324219 97.976562 279.636719 116.859375 283.140625 C 134.882812 286.484375 153.515625 289.945312 171.082031 302.238281 C 186.375 312.941406 206.917969 325.53125 230.253906 327.886719 C 231.316406 327.996094 232.382812 328.058594 233.441406 328.121094 C 210.433594 327.339844 190.082031 317.136719 171.082031 304.847656 C 154.050781 293.832031 136.195312 289.96875 118.933594 286.234375 C 99.460938 282.015625 81.070312 278.035156 67.445312 263.859375 C 57.355469 253.363281 47.871094 240.050781 40.4375 224.660156 C 46.363281 236.714844 53.757812 247.96875 62.21875 257.640625 Z M 64.117188 268.246094 C 64.957031 269.207031 65.808594 270.148438 66.667969 271.089844 C 84.285156 290.226562 107.644531 297.628906 132.371094 305.464844 C 144.382812 309.269531 156.808594 313.203125 168.929688 318.636719 C 193.402344 329.597656 216.605469 333.785156 238.855469 331.164062 C 216.664062 334.328125 193.429688 330.957031 168.835938 321.085938 C 158.988281 317.128906 148.949219 313.820312 139.238281 310.621094 C 112.117188 301.679688 86.496094 293.234375 67.28125 272.164062 C 62.898438 267.363281 58.734375 262.125 54.835938 256.53125 C 57.753906 260.597656 60.84375 264.515625 64.109375 268.253906 Z M 54.035156 253.804688 C 57.066406 258.082031 60.300781 262.191406 63.722656 266.097656 C 64.703125 267.222656 65.703125 268.332031 66.71875 269.421875 C 83.027344 286.964844 104.671875 293.390625 127.585938 300.207031 C 141.335938 304.292969 155.554688 308.515625 169.359375 315.359375 C 190.078125 325.628906 209.605469 330.839844 228.429688 330.992188 C 209.488281 331.425781 189.839844 327.046875 169.289062 317.839844 C 157.121094 312.386719 144.671875 308.441406 132.640625 304.628906 C 108.023438 296.832031 84.773438 289.46875 67.316406 270.5 C 62.621094 265.402344 58.171875 259.816406 54.03125 253.808594 Z M 62.464844 259.613281 C 63.902344 261.25 65.367188 262.851562 66.863281 264.414062 C 80.660156 278.765625 99.164062 282.769531 118.761719 287.015625 C 135.957031 290.734375 153.734375 294.585938 170.648438 305.519531 C 193.523438 320.308594 212.125 327.453125 230.957031 328.671875 C 208.378906 327.886719 188.433594 318.6875 170.636719 308.097656 C 154.429688 298.453125 137.574219 294.308594 121.273438 290.304688 C 100.929688 285.308594 81.722656 280.582031 67.410156 265.523438 C 60.664062 258.421875 54.195312 250.054688 48.421875 240.675781 C 52.640625 247.402344 57.339844 253.753906 62.46875 259.617188 Z M 62.902344 261.785156 C 64.179688 263.246094 65.484375 264.683594 66.816406 266.082031 C 81.289062 281.316406 100.613281 286.066406 121.074219 291.097656 C 137.316406 295.085938 154.109375 299.21875 170.214844 308.796875 C 192.433594 322.019531 211.601562 328.574219 230.367188 329.386719 C 207.351562 329.101562 187.183594 320.601562 170.1875 311.339844 C 155.011719 303.074219 139.328125 298.792969 124.167969 294.65625 C 102.742188 288.808594 82.507812 283.285156 67.378906 267.179688 C 61.613281 261.050781 56.207031 254.171875 51.3125 246.667969 C 54.882812 251.976562 58.746094 257.039062 62.902344 261.785156 Z M 63.316406 263.941406 C 64.445312 265.234375 65.597656 266.5 66.765625 267.75 C 82.054688 284.023438 102.402344 289.578125 123.945312 295.457031 C 139.0625 299.589844 154.695312 303.855469 169.789062 312.074219 C 185.546875 320.660156 204.007812 328.597656 224.925781 330.027344 C 207.308594 329.300781 189.039062 324.15625 169.742188 314.589844 C 155.871094 307.710938 141.617188 303.480469 127.835938 299.378906 C 105.035156 292.605469 83.503906 286.203125 67.351562 268.835938 C 62.3125 263.414062 57.5625 257.410156 53.171875 250.941406 C 56.339844 255.476562 59.722656 259.828125 63.324219 263.945312 Z M 64.503906 270.386719 C 65.203125 271.183594 65.910156 271.976562 66.621094 272.757812 C 85.996094 294.003906 111.722656 302.488281 138.957031 311.464844 C 148.65625 314.660156 158.683594 317.964844 168.503906 321.910156 C 189.496094 330.339844 209.511719 334.046875 228.738281 333.042969 C 209.382812 334.632812 189.234375 331.746094 168.390625 324.320312 C 161.914062 322.015625 155.324219 319.832031 148.953125 317.71875 C 118.121094 307.507812 89.007812 297.867188 67.261719 273.808594 C 61.34375 267.265625 56.042969 260.304688 51.335938 253.039062 C 55.351562 259.132812 59.746094 264.941406 64.507812 270.386719 Z M 64.886719 272.535156 C 65.441406 273.167969 66.007812 273.804688 66.574219 274.429688 C 88.484375 298.667969 117.714844 308.347656 148.660156 318.597656 C 155.03125 320.707031 161.613281 322.890625 168.082031 325.191406 C 189.101562 332.679688 209.410156 335.585938 228.917969 333.960938 C 209.273438 336.175781 188.820312 334.082031 167.9375 327.570312 L 164.8125 326.601562 C 129.511719 315.609375 93.011719 304.246094 67.230469 275.476562 C 66.792969 274.984375 66.363281 274.5 65.929688 274.007812 C 61.351562 268.777344 57.164062 263.292969 53.328125 257.625 C 56.90625 262.820312 60.757812 267.816406 64.890625 272.539062 Z M 65.195312 274.601562 C 65.632812 275.101562 66.078125 275.605469 66.527344 276.105469 C 92.484375 305.074219 129.105469 316.472656 164.527344 327.5 L 167.65625 328.472656 C 188.660156 335.023438 209.238281 337.132812 229.003906 334.910156 C 209.09375 337.730469 188.363281 336.425781 167.476562 330.820312 C 133.335938 321.660156 94.726562 308.113281 67.191406 277.132812 C 66.898438 276.804688 66.617188 276.484375 66.328125 276.152344 C 63.226562 272.605469 60.300781 268.941406 57.535156 265.1875 C 59.964844 268.402344 62.519531 271.546875 65.191406 274.597656 Z M 67.136719 280.449219 C 64.058594 276.933594 61.148438 273.304688 58.394531 269.59375 C 60.851562 272.832031 63.421875 276 66.121094 279.082031 L 66.4375 279.441406 C 90.550781 306.730469 124.320312 325.429688 166.820312 335.027344 C 186.855469 339.554688 206.679688 340.367188 225.738281 337.636719 C 169.308594 347.34375 108.429688 327.636719 67.144531 280.453125 Z M 167.027344 334.070312 C 124.738281 324.523438 91.140625 305.921875 67.167969 278.792969 L 66.867188 278.449219 C 63.867188 275.015625 61.027344 271.488281 58.328125 267.867188 C 60.648438 270.90625 63.058594 273.878906 65.589844 276.765625 C 65.882812 277.105469 66.179688 277.4375 66.476562 277.773438 C 94.179688 308.945312 132.957031 322.554688 167.230469 331.753906 C 191.601562 338.292969 215.761719 339.019531 238.664062 334.195312 C 215.804688 339.558594 191.578125 339.617188 167.027344 334.070312 Z M 303.402344 301.289062 C 303.128906 301.523438 302.851562 301.75 302.574219 301.980469 C 302.269531 302.230469 301.96875 302.480469 301.664062 302.730469 C 301.410156 302.9375 301.152344 303.144531 300.898438 303.347656 C 300.632812 303.554688 300.367188 303.773438 300.105469 303.976562 C 299.890625 304.148438 299.667969 304.308594 299.453125 304.476562 C 299.152344 304.703125 298.851562 304.925781 298.554688 305.152344 C 298.507812 305.1875 298.460938 305.222656 298.417969 305.253906 C 297.804688 305.710938 297.191406 306.15625 296.578125 306.59375 C 296.546875 306.617188 296.519531 306.636719 296.492188 306.65625 C 295.5625 307.308594 294.636719 307.945312 293.710938 308.574219 C 293.542969 308.6875 293.367188 308.808594 293.195312 308.921875 C 292.699219 309.246094 292.195312 309.605469 291.695312 309.925781 C 291.558594 310.007812 291.433594 310.085938 291.300781 310.175781 C 289.96875 311.023438 288.644531 311.824219 287.328125 312.605469 C 286.871094 312.871094 286.421875 313.136719 285.964844 313.394531 C 285 313.953125 284.039062 314.480469 283.085938 315 C 282.347656 315.394531 281.613281 315.78125 280.882812 316.15625 C 280.789062 316.203125 280.699219 316.25 280.605469 316.296875 C 280.390625 316.410156 280.183594 316.507812 279.964844 316.617188 C 229.992188 341.25 200.292969 311.75 173.738281 285.371094 C 154.207031 265.960938 131.226562 265.511719 110.953125 265.109375 C 94.398438 264.785156 78.769531 264.472656 67.625 253.90625 C 62.136719 248.703125 25.023438 211.324219 25.648438 154.019531 C 25.789062 146.703125 26.496094 139.195312 27.882812 131.527344 C 27.941406 131.222656 27.992188 130.925781 28.050781 130.621094 C 28.289062 129.347656 28.570312 128.058594 28.84375 126.78125 C 29.109375 125.566406 29.375 124.355469 29.675781 123.140625 C 29.796875 122.628906 29.933594 122.117188 30.058594 121.605469 C 30.527344 119.773438 31.019531 117.941406 31.558594 116.109375 C 31.558594 116.109375 31.558594 116.109375 31.558594 116.101562 C 32.152344 114.082031 32.804688 112.066406 33.492188 110.046875 C 33.574219 109.816406 33.648438 109.582031 33.730469 109.355469 C 34.292969 107.722656 34.898438 106.09375 35.523438 104.464844 C 35.800781 103.746094 36.078125 103.03125 36.367188 102.316406 C 36.65625 101.582031 36.972656 100.851562 37.28125 100.117188 C 37.410156 99.808594 37.539062 99.496094 37.667969 99.183594 C 37.726562 99.050781 37.78125 98.910156 37.839844 98.777344 C 38.257812 97.8125 38.671875 96.84375 39.109375 95.886719 C 39.164062 95.769531 39.210938 95.652344 39.265625 95.53125 C 39.296875 95.457031 39.328125 95.390625 39.359375 95.324219 C 39.492188 95.042969 39.628906 94.757812 39.761719 94.472656 C 40.09375 93.757812 40.445312 93.042969 40.792969 92.324219 C 40.871094 92.167969 40.949219 92.007812 41.023438 91.851562 C 41.175781 91.550781 41.324219 91.246094 41.472656 90.941406 C 41.59375 90.710938 41.707031 90.476562 41.828125 90.242188 C 42.214844 89.476562 42.589844 88.699219 42.992188 87.9375 C 52.214844 70.570312 64.574219 55.246094 79.441406 42.230469 C 148.300781 -18.039062 254.878906 -9.292969 317.027344 61.734375 C 379.171875 132.753906 373.820312 239.699219 304.960938 299.96875 C 304.445312 300.417969 303.921875 300.851562 303.40625 301.296875 Z M 303.402344 301.289062 " clip-rule="nonzero"/></clipPath><linearGradient x1="-118.280346" gradientTransform="matrix(0.223524, 0.439578, -0.43942, 0.223444, 263.511808, -58.442899)" y1="339.92001" x2="861.400061" gradientUnits="userSpaceOnUse" y2="339.92001" id="a5f5b93d49"><stop stop-opacity="1" stop-color="rgb(74.099731%, 39.599609%, 7.499695%)" offset="0"/><stop stop-opacity="1" stop-color="rgb(74.099731%, 39.599609%, 7.499695%)" offset="0.03125"/><stop stop-opacity="1" stop-color="rgb(74.099731%, 39.599609%, 7.499695%)" offset="0.046875"/><stop stop-opacity="1" stop-color="rgb(74.099731%, 39.599609%, 7.499695%)" offset="0.0546875"/><stop stop-opacity="1" stop-color="rgb(74.328613%, 39.997864%, 7.824707%)" offset="0.0585937"/><stop stop-opacity="1" stop-color="rgb(74.557495%, 40.397644%, 8.149719%)" offset="0.0625"/><stop stop-opacity="1" stop-color="rgb(75.093079%, 41.329956%, 8.911133%)" offset="0.0664062"/><stop stop-opacity="1" stop-color="rgb(75.630188%, 42.263794%, 9.674072%)" offset="0.0703125"/><stop stop-opacity="1" stop-color="rgb(76.165771%, 43.197632%, 10.435486%)" offset="0.0742188"/><stop stop-opacity="1" stop-color="rgb(76.702881%, 44.13147%, 11.196899%)" offset="0.078125"/><stop stop-opacity="1" stop-color="rgb(77.238464%, 45.065308%, 11.958313%)" offset="0.0820312"/><stop stop-opacity="1" stop-color="rgb(77.774048%, 45.999146%, 12.721252%)" offset="0.0859375"/><stop stop-opacity="1" stop-color="rgb(78.309631%, 46.932983%, 13.482666%)" offset="0.0898438"/><stop stop-opacity="1" stop-color="rgb(78.846741%, 47.866821%, 14.245605%)" offset="0.09375"/><stop stop-opacity="1" stop-color="rgb(79.382324%, 48.800659%, 15.007019%)" offset="0.0976562"/><stop stop-opacity="1" stop-color="rgb(79.919434%, 49.734497%, 15.768433%)" offset="0.101562"/><stop stop-opacity="1" stop-color="rgb(80.455017%, 50.666809%, 16.529846%)" offset="0.105469"/><stop stop-opacity="1" stop-color="rgb(80.992126%, 51.600647%, 17.292786%)" offset="0.109375"/><stop stop-opacity="1" stop-color="rgb(81.52771%, 52.534485%, 18.054199%)" offset="0.113281"/><stop stop-opacity="1" stop-color="rgb(82.064819%, 53.468323%, 18.815613%)" offset="0.117187"/><stop stop-opacity="1" stop-color="rgb(82.600403%, 54.402161%, 19.577026%)" offset="0.121094"/><stop stop-opacity="1" stop-color="rgb(83.135986%, 55.335999%, 20.339966%)" offset="0.125"/><stop stop-opacity="1" stop-color="rgb(83.67157%, 56.269836%, 21.101379%)" offset="0.128906"/><stop stop-opacity="1" stop-color="rgb(84.208679%, 57.203674%, 21.862793%)" offset="0.132812"/><stop stop-opacity="1" stop-color="rgb(84.744263%, 58.137512%, 22.624207%)" offset="0.136719"/><stop stop-opacity="1" stop-color="rgb(85.281372%, 59.07135%, 23.387146%)" offset="0.140625"/><stop stop-opacity="1" stop-color="rgb(85.816956%, 60.003662%, 24.14856%)" offset="0.144531"/><stop stop-opacity="1" stop-color="rgb(86.354065%, 60.9375%, 24.911499%)" offset="0.148438"/><stop stop-opacity="1" stop-color="rgb(86.889648%, 61.871338%, 25.672913%)" offset="0.152344"/><stop stop-opacity="1" stop-color="rgb(87.426758%, 62.805176%, 26.434326%)" offset="0.15625"/><stop stop-opacity="1" stop-color="rgb(87.962341%, 63.739014%, 27.19574%)" offset="0.160156"/><stop stop-opacity="1" stop-color="rgb(88.497925%, 64.672852%, 27.958679%)" offset="0.164062"/><stop stop-opacity="1" stop-color="rgb(89.033508%, 65.606689%, 28.720093%)" offset="0.167969"/><stop stop-opacity="1" stop-color="rgb(89.570618%, 66.540527%, 29.481506%)" offset="0.171875"/><stop stop-opacity="1" stop-color="rgb(90.106201%, 67.474365%, 30.24292%)" offset="0.175781"/><stop stop-opacity="1" stop-color="rgb(90.643311%, 68.408203%, 31.005859%)" offset="0.179688"/><stop stop-opacity="1" stop-color="rgb(91.178894%, 69.340515%, 31.767273%)" offset="0.183594"/><stop stop-opacity="1" stop-color="rgb(91.716003%, 70.274353%, 32.530212%)" offset="0.1875"/><stop stop-opacity="1" stop-color="rgb(92.251587%, 71.208191%, 33.291626%)" offset="0.191406"/><stop stop-opacity="1" stop-color="rgb(92.788696%, 72.142029%, 34.05304%)" offset="0.195312"/><stop stop-opacity="1" stop-color="rgb(93.32428%, 73.075867%, 34.814453%)" offset="0.199219"/><stop stop-opacity="1" stop-color="rgb(93.859863%, 74.009705%, 35.577393%)" offset="0.203125"/><stop stop-opacity="1" stop-color="rgb(94.395447%, 74.943542%, 36.338806%)" offset="0.207031"/><stop stop-opacity="1" stop-color="rgb(94.932556%, 75.87738%, 37.10022%)" offset="0.210937"/><stop stop-opacity="1" stop-color="rgb(95.46814%, 76.811218%, 37.861633%)" offset="0.214844"/><stop stop-opacity="1" stop-color="rgb(96.005249%, 77.745056%, 38.624573%)" offset="0.21875"/><stop stop-opacity="1" stop-color="rgb(96.540833%, 78.677368%, 39.385986%)" offset="0.222656"/><stop stop-opacity="1" stop-color="rgb(97.077942%, 79.611206%, 40.1474%)" offset="0.226562"/><stop stop-opacity="1" stop-color="rgb(97.613525%, 80.545044%, 40.908813%)" offset="0.230469"/><stop stop-opacity="1" stop-color="rgb(98.150635%, 81.478882%, 41.671753%)" offset="0.234375"/><stop stop-opacity="1" stop-color="rgb(98.686218%, 82.41272%, 42.433167%)" offset="0.238281"/><stop stop-opacity="1" stop-color="rgb(99.221802%, 83.346558%, 43.196106%)" offset="0.242187"/><stop stop-opacity="1" stop-color="rgb(99.468994%, 83.776855%, 43.547058%)" offset="0.246094"/><stop stop-opacity="1" stop-color="rgb(99.717712%, 84.208679%, 43.89801%)" offset="0.25"/><stop stop-opacity="1" stop-color="rgb(99.205017%, 83.31604%, 43.170166%)" offset="0.253906"/><stop stop-opacity="1" stop-color="rgb(98.693848%, 82.424927%, 42.443848%)" offset="0.257812"/><stop stop-opacity="1" stop-color="rgb(98.181152%, 81.533813%, 41.716003%)" offset="0.261719"/><stop stop-opacity="1" stop-color="rgb(97.669983%, 80.6427%, 40.989685%)" offset="0.265625"/><stop stop-opacity="1" stop-color="rgb(97.157288%, 79.751587%, 40.261841%)" offset="0.269531"/><stop stop-opacity="1" stop-color="rgb(96.646118%, 78.860474%, 39.535522%)" offset="0.273437"/><stop stop-opacity="1" stop-color="rgb(96.133423%, 77.96936%, 38.807678%)" offset="0.277344"/><stop stop-opacity="1" stop-color="rgb(95.622253%, 77.078247%, 38.08136%)" offset="0.28125"/><stop stop-opacity="1" stop-color="rgb(95.109558%, 76.187134%, 37.353516%)" offset="0.285156"/><stop stop-opacity="1" stop-color="rgb(94.598389%, 75.296021%, 36.625671%)" offset="0.289062"/><stop stop-opacity="1" stop-color="rgb(94.085693%, 74.404907%, 35.897827%)" offset="0.292969"/><stop stop-opacity="1" stop-color="rgb(93.574524%, 73.513794%, 35.171509%)" offset="0.296875"/><stop stop-opacity="1" stop-color="rgb(93.063354%, 72.621155%, 34.443665%)" offset="0.300781"/><stop stop-opacity="1" stop-color="rgb(92.552185%, 71.730042%, 33.717346%)" offset="0.304688"/><stop stop-opacity="1" stop-color="rgb(92.03949%, 70.838928%, 32.989502%)" offset="0.308594"/><stop stop-opacity="1" stop-color="rgb(91.52832%, 69.947815%, 32.263184%)" offset="0.3125"/><stop stop-opacity="1" stop-color="rgb(91.015625%, 69.056702%, 31.535339%)" offset="0.316406"/><stop stop-opacity="1" stop-color="rgb(90.504456%, 68.165588%, 30.809021%)" offset="0.320312"/><stop stop-opacity="1" stop-color="rgb(89.99176%, 67.274475%, 30.081177%)" offset="0.324219"/><stop stop-opacity="1" stop-color="rgb(89.480591%, 66.383362%, 29.353333%)" offset="0.328125"/><stop stop-opacity="1" stop-color="rgb(88.967896%, 65.492249%, 28.625488%)" offset="0.332031"/><stop stop-opacity="1" stop-color="rgb(88.456726%, 64.601135%, 27.89917%)" offset="0.335937"/><stop stop-opacity="1" stop-color="rgb(87.944031%, 63.708496%, 27.171326%)" offset="0.339844"/><stop stop-opacity="1" stop-color="rgb(87.432861%, 62.817383%, 26.445007%)" offset="0.34375"/><stop stop-opacity="1" stop-color="rgb(86.920166%, 61.92627%, 25.717163%)" offset="0.347656"/><stop stop-opacity="1" stop-color="rgb(86.408997%, 61.035156%, 24.990845%)" offset="0.351562"/><stop stop-opacity="1" stop-color="rgb(85.897827%, 60.144043%, 24.263%)" offset="0.355469"/><stop stop-opacity="1" stop-color="rgb(85.386658%, 59.25293%, 23.536682%)" offset="0.359375"/><stop stop-opacity="1" stop-color="rgb(84.873962%, 58.361816%, 22.808838%)" offset="0.363281"/><stop stop-opacity="1" stop-color="rgb(84.362793%, 57.470703%, 22.080994%)" offset="0.367187"/><stop stop-opacity="1" stop-color="rgb(83.850098%, 56.57959%, 21.353149%)" offset="0.371094"/><stop stop-opacity="1" stop-color="rgb(83.338928%, 55.688477%, 20.626831%)" offset="0.375"/><stop stop-opacity="1" stop-color="rgb(82.826233%, 54.797363%, 19.898987%)" offset="0.378906"/><stop stop-opacity="1" stop-color="rgb(82.315063%, 53.90625%, 19.172668%)" offset="0.382812"/><stop stop-opacity="1" stop-color="rgb(81.802368%, 53.013611%, 18.444824%)" offset="0.386719"/><stop stop-opacity="1" stop-color="rgb(81.291199%, 52.122498%, 17.718506%)" offset="0.390625"/><stop stop-opacity="1" stop-color="rgb(80.778503%, 51.231384%, 16.990662%)" offset="0.394531"/><stop stop-opacity="1" stop-color="rgb(80.267334%, 50.340271%, 16.264343%)" offset="0.398437"/><stop stop-opacity="1" stop-color="rgb(79.754639%, 49.449158%, 15.536499%)" offset="0.402344"/><stop stop-opacity="1" stop-color="rgb(79.243469%, 48.558044%, 14.808655%)" offset="0.40625"/><stop stop-opacity="1" stop-color="rgb(78.7323%, 47.666931%, 14.080811%)" offset="0.410156"/><stop stop-opacity="1" stop-color="rgb(78.22113%, 46.775818%, 13.354492%)" offset="0.414062"/><stop stop-opacity="1" stop-color="rgb(77.708435%, 45.884705%, 12.626648%)" offset="0.417969"/><stop stop-opacity="1" stop-color="rgb(77.197266%, 44.993591%, 11.90033%)" offset="0.421875"/><stop stop-opacity="1" stop-color="rgb(76.68457%, 44.102478%, 11.172485%)" offset="0.425781"/><stop stop-opacity="1" stop-color="rgb(76.173401%, 43.211365%, 10.446167%)" offset="0.429687"/><stop stop-opacity="1" stop-color="rgb(75.660706%, 42.318726%, 9.718323%)" offset="0.433594"/><stop stop-opacity="1" stop-color="rgb(75.149536%, 41.427612%, 8.992004%)" offset="0.4375"/><stop stop-opacity="1" stop-color="rgb(74.636841%, 40.536499%, 8.26416%)" offset="0.441406"/><stop stop-opacity="1" stop-color="rgb(74.125671%, 39.645386%, 7.537842%)" offset="0.445312"/><stop stop-opacity="1" stop-color="rgb(74.659729%, 40.576172%, 8.297729%)" offset="0.449219"/><stop stop-opacity="1" stop-color="rgb(75.195312%, 41.508484%, 9.057617%)" offset="0.453125"/><stop stop-opacity="1" stop-color="rgb(75.758362%, 42.488098%, 9.857178%)" offset="0.457031"/><stop stop-opacity="1" stop-color="rgb(76.321411%, 43.469238%, 10.656738%)" offset="0.460937"/><stop stop-opacity="1" stop-color="rgb(76.88446%, 44.448853%, 11.456299%)" offset="0.464844"/><stop stop-opacity="1" stop-color="rgb(77.44751%, 45.429993%, 12.257385%)" offset="0.46875"/><stop stop-opacity="1" stop-color="rgb(78.010559%, 46.409607%, 13.056946%)" offset="0.472656"/><stop stop-opacity="1" stop-color="rgb(78.573608%, 47.390747%, 13.856506%)" offset="0.476562"/><stop stop-opacity="1" stop-color="rgb(79.136658%, 48.370361%, 14.656067%)" offset="0.480469"/><stop stop-opacity="1" stop-color="rgb(79.699707%, 49.351501%, 15.457153%)" offset="0.484375"/><stop stop-opacity="1" stop-color="rgb(80.262756%, 50.331116%, 16.256714%)" offset="0.488281"/><stop stop-opacity="1" stop-color="rgb(80.825806%, 51.312256%, 17.056274%)" offset="0.492187"/><stop stop-opacity="1" stop-color="rgb(81.388855%, 52.29187%, 17.855835%)" offset="0.496094"/><stop stop-opacity="1" stop-color="rgb(81.951904%, 53.27301%, 18.656921%)" offset="0.5"/><stop stop-opacity="1" stop-color="rgb(82.514954%, 54.252625%, 19.456482%)" offset="0.503906"/><stop stop-opacity="1" stop-color="rgb(83.078003%, 55.233765%, 20.256042%)" offset="0.507812"/><stop stop-opacity="1" stop-color="rgb(83.641052%, 56.213379%, 21.055603%)" offset="0.511719"/><stop stop-opacity="1" stop-color="rgb(84.204102%, 57.194519%, 21.856689%)" offset="0.515625"/><stop stop-opacity="1" stop-color="rgb(84.767151%, 58.174133%, 22.65625%)" offset="0.519531"/><stop stop-opacity="1" stop-color="rgb(85.3302%, 59.155273%, 23.455811%)" offset="0.523438"/><stop stop-opacity="1" stop-color="rgb(85.89325%, 60.134888%, 24.255371%)" offset="0.527344"/><stop stop-opacity="1" stop-color="rgb(86.456299%, 61.116028%, 25.056458%)" offset="0.53125"/><stop stop-opacity="1" stop-color="rgb(87.019348%, 62.095642%, 25.856018%)" offset="0.535156"/><stop stop-opacity="1" stop-color="rgb(87.582397%, 63.076782%, 26.655579%)" offset="0.539062"/><stop stop-opacity="1" stop-color="rgb(88.145447%, 64.056396%, 27.455139%)" offset="0.542969"/><stop stop-opacity="1" stop-color="rgb(88.708496%, 65.037537%, 28.256226%)" offset="0.546875"/><stop stop-opacity="1" stop-color="rgb(89.271545%, 66.017151%, 29.055786%)" offset="0.550781"/><stop stop-opacity="1" stop-color="rgb(89.834595%, 66.998291%, 29.855347%)" offset="0.554688"/><stop stop-opacity="1" stop-color="rgb(90.397644%, 67.977905%, 30.654907%)" offset="0.558594"/><stop stop-opacity="1" stop-color="rgb(90.960693%, 68.959045%, 31.455994%)" offset="0.5625"/><stop stop-opacity="1" stop-color="rgb(91.523743%, 69.93866%, 32.255554%)" offset="0.566406"/><stop stop-opacity="1" stop-color="rgb(92.086792%, 70.9198%, 33.055115%)" offset="0.570312"/><stop stop-opacity="1" stop-color="rgb(92.648315%, 71.899414%, 33.854675%)" offset="0.574219"/><stop stop-opacity="1" stop-color="rgb(93.211365%, 72.880554%, 34.655762%)" offset="0.578125"/><stop stop-opacity="1" stop-color="rgb(93.774414%, 73.860168%, 35.455322%)" offset="0.582031"/><stop stop-opacity="1" stop-color="rgb(94.337463%, 74.841309%, 36.254883%)" offset="0.585937"/><stop stop-opacity="1" stop-color="rgb(94.900513%, 75.820923%, 37.054443%)" offset="0.589844"/><stop stop-opacity="1" stop-color="rgb(95.463562%, 76.802063%, 37.85553%)" offset="0.59375"/><stop stop-opacity="1" stop-color="rgb(96.026611%, 77.781677%, 38.65509%)" offset="0.597656"/><stop stop-opacity="1" stop-color="rgb(96.589661%, 78.762817%, 39.454651%)" offset="0.601562"/><stop stop-opacity="1" stop-color="rgb(97.15271%, 79.742432%, 40.254211%)" offset="0.605469"/><stop stop-opacity="1" stop-color="rgb(97.715759%, 80.723572%, 41.055298%)" offset="0.609375"/><stop stop-opacity="1" stop-color="rgb(98.278809%, 81.703186%, 41.854858%)" offset="0.613281"/><stop stop-opacity="1" stop-color="rgb(98.841858%, 82.684326%, 42.654419%)" offset="0.617187"/><stop stop-opacity="1" stop-color="rgb(99.404907%, 83.66394%, 43.453979%)" offset="0.621094"/><stop stop-opacity="1" stop-color="rgb(99.967957%, 84.645081%, 44.255066%)" offset="0.625"/><stop stop-opacity="1" stop-color="rgb(99.339294%, 83.5495%, 43.360901%)" offset="0.628906"/><stop stop-opacity="1" stop-color="rgb(98.710632%, 82.455444%, 42.468262%)" offset="0.632813"/><stop stop-opacity="1" stop-color="rgb(98.048401%, 81.30188%, 41.526794%)" offset="0.636719"/><stop stop-opacity="1" stop-color="rgb(97.386169%, 80.149841%, 40.586853%)" offset="0.640625"/><stop stop-opacity="1" stop-color="rgb(96.723938%, 78.996277%, 39.645386%)" offset="0.644531"/><stop stop-opacity="1" stop-color="rgb(96.061707%, 77.842712%, 38.703918%)" offset="0.648438"/><stop stop-opacity="1" stop-color="rgb(95.399475%, 76.689148%, 37.762451%)" offset="0.652344"/><stop stop-opacity="1" stop-color="rgb(94.737244%, 75.535583%, 36.82251%)" offset="0.65625"/><stop stop-opacity="1" stop-color="rgb(94.075012%, 74.382019%, 35.881042%)" offset="0.660156"/><stop stop-opacity="1" stop-color="rgb(93.412781%, 73.228455%, 34.939575%)" offset="0.664062"/><stop stop-opacity="1" stop-color="rgb(92.749023%, 72.07489%, 33.998108%)" offset="0.667969"/><stop stop-opacity="1" stop-color="rgb(92.086792%, 70.922852%, 33.058167%)" offset="0.671875"/><stop stop-opacity="1" stop-color="rgb(91.424561%, 69.769287%, 32.116699%)" offset="0.675781"/><stop stop-opacity="1" stop-color="rgb(90.762329%, 68.615723%, 31.175232%)" offset="0.679688"/><stop stop-opacity="1" stop-color="rgb(90.100098%, 67.462158%, 30.233765%)" offset="0.683594"/><stop stop-opacity="1" stop-color="rgb(89.437866%, 66.308594%, 29.293823%)" offset="0.6875"/><stop stop-opacity="1" stop-color="rgb(88.775635%, 65.155029%, 28.352356%)" offset="0.691406"/><stop stop-opacity="1" stop-color="rgb(88.113403%, 64.001465%, 27.410889%)" offset="0.695312"/><stop stop-opacity="1" stop-color="rgb(87.451172%, 62.8479%, 26.469421%)" offset="0.699219"/><stop stop-opacity="1" stop-color="rgb(86.78894%, 61.695862%, 25.52948%)" offset="0.703125"/><stop stop-opacity="1" stop-color="rgb(86.126709%, 60.542297%, 24.588013%)" offset="0.707031"/><stop stop-opacity="1" stop-color="rgb(85.464478%, 59.388733%, 23.646545%)" offset="0.710938"/><stop stop-opacity="1" stop-color="rgb(84.80072%, 58.235168%, 22.705078%)" offset="0.714844"/><stop stop-opacity="1" stop-color="rgb(84.138489%, 57.081604%, 21.765137%)" offset="0.71875"/><stop stop-opacity="1" stop-color="rgb(83.476257%, 55.92804%, 20.823669%)" offset="0.722656"/><stop stop-opacity="1" stop-color="rgb(82.814026%, 54.774475%, 19.882202%)" offset="0.726562"/><stop stop-opacity="1" stop-color="rgb(82.151794%, 53.620911%, 18.940735%)" offset="0.730469"/><stop stop-opacity="1" stop-color="rgb(81.489563%, 52.468872%, 17.999268%)" offset="0.734375"/><stop stop-opacity="1" stop-color="rgb(80.827332%, 51.315308%, 17.0578%)" offset="0.738281"/><stop stop-opacity="1" stop-color="rgb(80.1651%, 50.161743%, 16.117859%)" offset="0.742188"/><stop stop-opacity="1" stop-color="rgb(79.502869%, 49.008179%, 15.176392%)" offset="0.746094"/><stop stop-opacity="1" stop-color="rgb(78.840637%, 47.854614%, 14.234924%)" offset="0.75"/><stop stop-opacity="1" stop-color="rgb(78.178406%, 46.70105%, 13.293457%)" offset="0.753906"/><stop stop-opacity="1" stop-color="rgb(77.516174%, 45.547485%, 12.353516%)" offset="0.757812"/><stop stop-opacity="1" stop-color="rgb(76.852417%, 44.393921%, 11.412048%)" offset="0.761719"/><stop stop-opacity="1" stop-color="rgb(76.190186%, 43.241882%, 10.470581%)" offset="0.765625"/><stop stop-opacity="1" stop-color="rgb(75.527954%, 42.088318%, 9.529114%)" offset="0.769531"/><stop stop-opacity="1" stop-color="rgb(74.865723%, 40.934753%, 8.589172%)" offset="0.773437"/><stop stop-opacity="1" stop-color="rgb(74.719238%, 40.679932%, 8.380127%)" offset="0.777344"/><stop stop-opacity="1" stop-color="rgb(74.572754%, 40.42511%, 8.172607%)" offset="0.78125"/><stop stop-opacity="1" stop-color="rgb(75.135803%, 41.404724%, 8.972168%)" offset="0.785156"/><stop stop-opacity="1" stop-color="rgb(75.698853%, 42.385864%, 9.773254%)" offset="0.789062"/><stop stop-opacity="1" stop-color="rgb(76.261902%, 43.365479%, 10.572815%)" offset="0.792969"/><stop stop-opacity="1" stop-color="rgb(76.824951%, 44.346619%, 11.372375%)" offset="0.796875"/><stop stop-opacity="1" stop-color="rgb(77.388%, 45.326233%, 12.171936%)" offset="0.800781"/><stop stop-opacity="1" stop-color="rgb(77.95105%, 46.307373%, 12.973022%)" offset="0.804687"/><stop stop-opacity="1" stop-color="rgb(78.514099%, 47.286987%, 13.772583%)" offset="0.808594"/><stop stop-opacity="1" stop-color="rgb(79.077148%, 48.268127%, 14.572144%)" offset="0.8125"/><stop stop-opacity="1" stop-color="rgb(79.640198%, 49.247742%, 15.371704%)" offset="0.816406"/><stop stop-opacity="1" stop-color="rgb(80.203247%, 50.228882%, 16.172791%)" offset="0.820312"/><stop stop-opacity="1" stop-color="rgb(80.766296%, 51.208496%, 16.972351%)" offset="0.824219"/><stop stop-opacity="1" stop-color="rgb(81.329346%, 52.189636%, 17.771912%)" offset="0.828125"/><stop stop-opacity="1" stop-color="rgb(81.892395%, 53.16925%, 18.571472%)" offset="0.832031"/><stop stop-opacity="1" stop-color="rgb(82.455444%, 54.150391%, 19.372559%)" offset="0.835937"/><stop stop-opacity="1" stop-color="rgb(83.018494%, 55.130005%, 20.172119%)" offset="0.839844"/><stop stop-opacity="1" stop-color="rgb(83.581543%, 56.111145%, 20.97168%)" offset="0.84375"/><stop stop-opacity="1" stop-color="rgb(84.144592%, 57.090759%, 21.77124%)" offset="0.847656"/><stop stop-opacity="1" stop-color="rgb(84.707642%, 58.071899%, 22.572327%)" offset="0.851562"/><stop stop-opacity="1" stop-color="rgb(85.270691%, 59.051514%, 23.371887%)" offset="0.855469"/><stop stop-opacity="1" stop-color="rgb(85.83374%, 60.032654%, 24.171448%)" offset="0.859375"/><stop stop-opacity="1" stop-color="rgb(86.39679%, 61.012268%, 24.971008%)" offset="0.863281"/><stop stop-opacity="1" stop-color="rgb(86.959839%, 61.993408%, 25.772095%)" offset="0.867187"/><stop stop-opacity="1" stop-color="rgb(87.522888%, 62.973022%, 26.571655%)" offset="0.871094"/><stop stop-opacity="1" stop-color="rgb(88.085938%, 63.954163%, 27.371216%)" offset="0.875"/><stop stop-opacity="1" stop-color="rgb(88.648987%, 64.933777%, 28.170776%)" offset="0.878906"/><stop stop-opacity="1" stop-color="rgb(89.212036%, 65.914917%, 28.971863%)" offset="0.882812"/><stop stop-opacity="1" stop-color="rgb(89.775085%, 66.894531%, 29.771423%)" offset="0.886719"/><stop stop-opacity="1" stop-color="rgb(90.338135%, 67.875671%, 30.570984%)" offset="0.890625"/><stop stop-opacity="1" stop-color="rgb(90.901184%, 68.855286%, 31.370544%)" offset="0.894531"/><stop stop-opacity="1" stop-color="rgb(91.464233%, 69.836426%, 32.171631%)" offset="0.898438"/><stop stop-opacity="1" stop-color="rgb(92.027283%, 70.81604%, 32.971191%)" offset="0.902344"/><stop stop-opacity="1" stop-color="rgb(92.590332%, 71.79718%, 33.770752%)" offset="0.90625"/><stop stop-opacity="1" stop-color="rgb(93.151855%, 72.776794%, 34.570312%)" offset="0.910156"/><stop stop-opacity="1" stop-color="rgb(93.714905%, 73.757935%, 35.371399%)" offset="0.914063"/><stop stop-opacity="1" stop-color="rgb(94.277954%, 74.737549%, 36.170959%)" offset="0.917969"/><stop stop-opacity="1" stop-color="rgb(94.841003%, 75.718689%, 36.97052%)" offset="0.921875"/><stop stop-opacity="1" stop-color="rgb(95.404053%, 76.698303%, 37.770081%)" offset="0.925781"/><stop stop-opacity="1" stop-color="rgb(95.967102%, 77.679443%, 38.571167%)" offset="0.929688"/><stop stop-opacity="1" stop-color="rgb(96.530151%, 78.659058%, 39.370728%)" offset="0.933594"/><stop stop-opacity="1" stop-color="rgb(97.093201%, 79.640198%, 40.170288%)" offset="0.9375"/><stop stop-opacity="1" stop-color="rgb(97.65625%, 80.619812%, 40.969849%)" offset="0.941406"/><stop stop-opacity="1" stop-color="rgb(98.219299%, 81.600952%, 41.770935%)" offset="0.945312"/><stop stop-opacity="1" stop-color="rgb(98.782349%, 82.580566%, 42.570496%)" offset="0.949219"/><stop stop-opacity="1" stop-color="rgb(99.345398%, 83.561707%, 43.370056%)" offset="0.953125"/><stop stop-opacity="1" stop-color="rgb(99.671936%, 84.129333%, 43.833923%)" offset="0.957031"/><stop stop-opacity="1" stop-color="rgb(100%, 84.698486%, 44.299316%)" offset="0.960938"/><stop stop-opacity="1" stop-color="rgb(100%, 84.698486%, 44.299316%)" offset="0.96875"/><stop stop-opacity="1" stop-color="rgb(100%, 84.698486%, 44.299316%)" offset="1"/></linearGradient><clipPath id="df64dc1814"><path d="M 141.199219 93.613281 L 168.949219 93.613281 L 168.949219 109 L 141.199219 109 Z M 141.199219 93.613281 " clip-rule="nonzero"/></clipPath><clipPath id="65e51ae237"><path d="M 141.210938 93.613281 L 168.9375 93.613281 L 168.9375 109.214844 L 141.210938 109.214844 Z M 141.210938 93.613281 " clip-rule="nonzero"/></clipPath><clipPath id="b07e271480"><path d="M 147.265625 109.492188 L 162.886719 109.492188 L 162.886719 110.113281 L 147.265625 110.113281 Z M 147.265625 109.492188 " clip-rule="nonzero"/></clipPath><clipPath id="ac2696bd00"><path d="M 237.644531 266.726562 L 297.765625 266.726562 L 297.765625 302.585938 L 237.644531 302.585938 Z M 237.644531 266.726562 " clip-rule="nonzero"/></clipPath><clipPath id="e61798763c"><path d="M 247.082031 292.957031 C 250.0625 295.554688 250.164062 295.175781 250.375 294.691406 C 250.894531 293.371094 251.449219 289.5625 251.726562 286.789062 C 252.035156 283.703125 251.65625 278.402344 252.035156 276.980469 C 252.140625 276.53125 252.246094 276.320312 252.453125 276.148438 C 252.695312 276.007812 253.109375 275.976562 253.386719 276.042969 C 253.597656 276.113281 253.664062 276.21875 253.910156 276.53125 C 254.984375 277.949219 259.003906 287.65625 260.875 290.773438 C 261.84375 292.402344 263.128906 293.511719 263.40625 294.34375 C 263.542969 294.726562 263.578125 295 263.472656 295.246094 C 263.300781 295.523438 262.851562 295.867188 262.503906 295.800781 C 262.019531 295.730469 261.5 294.933594 260.875 294.101562 C 259.660156 292.542969 257.652344 288.140625 256.265625 286.648438 C 255.503906 285.816406 254.984375 285.367188 254.082031 285.054688 C 253.007812 284.640625 251.171875 284.707031 250.0625 284.777344 C 249.265625 284.8125 248.777344 284.917969 248.085938 285.160156 C 247.253906 285.4375 246.214844 285.957031 245.488281 286.476562 C 244.792969 286.960938 244.238281 287.410156 243.753906 288.035156 C 243.269531 288.730469 242.886719 289.59375 242.679688 290.460938 C 242.4375 291.433594 241.847656 293.027344 242.4375 293.648438 C 243.335938 294.621094 248.015625 294.101562 249.820312 293.648438 C 250.929688 293.371094 251.203125 293.0625 252.382812 292.265625 C 255.46875 290.183594 264.480469 281.761719 268.082031 278.988281 C 269.886719 277.636719 271.238281 276.355469 272.242188 276.113281 C 272.761719 275.976562 273.246094 276.007812 273.457031 276.21875 C 273.664062 276.390625 273.734375 276.875 273.664062 277.152344 C 273.59375 277.429688 273.421875 277.535156 273.109375 277.847656 C 271.757812 279.199219 264.445312 284.605469 262.15625 286.71875 C 261.011719 287.792969 260.527344 288.589844 259.765625 289.25 C 259.140625 289.769531 258.449219 290.460938 257.964844 290.425781 C 257.582031 290.425781 257.097656 289.941406 257.027344 289.628906 C 256.957031 289.386719 257.097656 289.007812 257.304688 288.796875 C 257.582031 288.554688 258.101562 288.484375 258.726562 288.382812 C 259.765625 288.140625 261.464844 287.757812 263.058594 287.792969 C 265.066406 287.792969 267.980469 288.730469 269.816406 288.832031 C 271.097656 288.902344 272 288.902344 273.039062 288.660156 C 274.113281 288.382812 275.292969 287.898438 276.226562 287.167969 C 277.300781 286.371094 278.621094 284.707031 279 283.980469 C 279.171875 283.632812 279.3125 283.21875 279.207031 283.113281 C 279.070312 283.011719 278.480469 283.597656 277.925781 283.738281 C 277.128906 283.980469 275.640625 283.808594 274.738281 284.121094 C 274.042969 284.363281 273.28125 284.777344 272.96875 285.195312 C 272.761719 285.472656 272.589844 285.78125 272.726562 286.128906 C 273.144531 287.03125 277.542969 288.382812 278.828125 289.421875 C 279.589844 290.011719 280.074219 290.601562 280.386719 291.121094 C 280.558594 291.46875 280.664062 291.742188 280.664062 292.089844 C 280.699219 292.507812 280.558594 293.0625 280.351562 293.476562 C 280.144531 293.925781 279.867188 294.238281 279.382812 294.65625 C 278.550781 295.382812 277.128906 296.421875 275.671875 297.183594 C 273.941406 298.085938 271.828125 298.847656 269.503906 299.542969 C 266.695312 300.375 262.882812 301.066406 259.871094 301.550781 C 257.234375 301.96875 254.773438 302.210938 252.382812 302.382812 C 250.199219 302.523438 248.292969 302.59375 246.179688 302.523438 C 243.890625 302.453125 240.425781 302.59375 239.074219 301.898438 C 238.382812 301.515625 238 300.964844 237.828125 300.339844 C 237.621094 299.679688 237.828125 298.640625 238 298.050781 C 238.140625 297.601562 238.277344 297.394531 238.589844 297.046875 C 239.109375 296.386719 239.90625 295.660156 241.121094 294.863281 C 243.335938 293.40625 247.566406 291.398438 251.449219 289.699219 C 256.160156 287.621094 263.128906 285.4375 267.460938 283.632812 C 270.507812 282.386719 272.414062 281.519531 275.117188 280.167969 C 278.238281 278.644531 281.703125 276.945312 285.066406 274.867188 C 288.773438 272.578125 294.597656 267.171875 296.433594 266.824219 C 296.953125 266.722656 297.335938 266.824219 297.507812 267.066406 C 297.679688 267.277344 297.714844 267.898438 297.542969 268.175781 C 297.4375 268.386719 297.058594 268.558594 296.816406 268.558594 C 296.539062 268.558594 296.191406 268.351562 296.050781 268.140625 C 295.914062 267.933594 295.84375 267.519531 295.949219 267.308594 C 296.085938 267.03125 296.605469 266.722656 296.917969 266.757812 C 297.195312 266.789062 297.613281 267.242188 297.714844 267.519531 C 297.785156 267.691406 297.714844 267.863281 297.613281 268.074219 C 297.367188 268.488281 296.816406 268.9375 296.015625 269.597656 C 293.9375 271.226562 288.253906 274.96875 284.164062 277.328125 C 280.109375 279.648438 276.4375 281.519531 271.652344 283.632812 C 265.589844 286.304688 256.023438 289.285156 250.617188 291.777344 C 247.082031 293.40625 243.890625 295.175781 242.089844 296.386719 C 241.15625 297.011719 240.566406 297.324219 240.148438 297.984375 C 239.734375 298.605469 239.25 299.679688 239.59375 300.199219 C 240.046875 300.859375 242.261719 300.753906 243.859375 300.859375 C 245.730469 300.996094 247.738281 300.894531 250.128906 300.753906 C 253.285156 300.582031 257.617188 300.199219 261.011719 299.613281 C 264.097656 299.125 267.183594 298.433594 269.675781 297.636719 C 271.617188 297.046875 273.421875 296.285156 274.773438 295.589844 C 275.742188 295.105469 276.4375 294.65625 277.128906 294.101562 C 277.789062 293.546875 278.863281 292.886719 278.898438 292.296875 C 278.898438 291.742188 278.238281 291.257812 277.578125 290.738281 C 276.367188 289.804688 272.691406 288.660156 271.722656 287.898438 C 271.339844 287.585938 271.167969 287.410156 271.027344 287.03125 C 270.855469 286.546875 270.785156 285.644531 270.960938 285.054688 C 271.132812 284.5 271.550781 284.015625 271.964844 283.597656 C 272.449219 283.148438 273.039062 282.800781 273.699219 282.558594 C 274.425781 282.246094 275.222656 282.109375 276.125 282.003906 C 277.300781 281.867188 279.382812 281.695312 280.144531 282.003906 C 280.558594 282.179688 280.800781 282.492188 280.941406 282.800781 C 281.046875 283.078125 281.046875 283.425781 280.941406 283.84375 C 280.734375 284.429688 280.144531 285.332031 279.554688 286.058594 C 278.898438 286.890625 278.066406 287.863281 277.09375 288.554688 C 276.019531 289.316406 274.53125 290.011719 273.316406 290.359375 C 272.3125 290.636719 271.582031 290.667969 270.40625 290.636719 C 268.535156 290.601562 265.378906 289.5625 263.160156 289.59375 C 261.289062 289.59375 258.96875 290.703125 257.964844 290.425781 C 257.476562 290.289062 257.097656 289.941406 257.027344 289.628906 C 256.957031 289.386719 257.097656 289.144531 257.304688 288.796875 C 257.859375 288 259.488281 286.683594 261.046875 285.332031 C 263.507812 283.21875 268.984375 278.710938 270.820312 277.535156 C 271.445312 277.152344 271.792969 276.808594 272.207031 276.839844 C 272.519531 276.875 273.074219 277.222656 273.074219 277.535156 C 273.039062 278.402344 269.261719 280.167969 266.800781 282.109375 C 263.023438 285.125 256.125 292.160156 252.800781 294.171875 C 251.238281 295.105469 250.40625 295.347656 249.023438 295.625 C 247.460938 295.9375 245.347656 295.867188 243.925781 295.765625 C 242.816406 295.660156 241.640625 295.589844 241.121094 295.246094 C 240.773438 295 240.667969 294.757812 240.566406 294.378906 C 240.355469 293.683594 240.425781 292.332031 240.566406 291.328125 C 240.738281 290.324219 241.15625 289.214844 241.535156 288.277344 C 241.917969 287.480469 242.332031 286.71875 242.851562 286.164062 C 243.335938 285.644531 243.859375 285.332031 244.515625 284.917969 C 245.3125 284.398438 246.351562 283.703125 247.324219 283.355469 C 248.222656 283.046875 249.023438 282.871094 250.0625 282.800781 C 251.378906 282.734375 253.386719 282.769531 254.707031 283.21875 C 255.78125 283.566406 256.4375 284.015625 257.410156 284.984375 C 259.210938 286.824219 262.917969 292.820312 263.40625 294.34375 C 263.542969 294.757812 263.578125 295 263.472656 295.246094 C 263.300781 295.523438 262.851562 295.800781 262.503906 295.800781 C 262.121094 295.800781 261.707031 295.488281 261.289062 295.070312 C 260.597656 294.378906 260.078125 293.128906 259.210938 291.570312 C 257.617188 288.660156 253.492188 281.171875 252.558594 278.816406 C 252.210938 277.949219 252.003906 277.464844 252.035156 276.980469 C 252.070312 276.632812 252.246094 276.285156 252.453125 276.148438 C 252.730469 276.007812 253.320312 275.976562 253.597656 276.148438 C 253.839844 276.320312 253.910156 276.632812 254.011719 277.152344 C 254.289062 278.679688 253.941406 283.53125 253.632812 286.582031 C 253.320312 289.527344 252.867188 293.511719 252.175781 295.175781 C 251.828125 295.972656 251.480469 296.386719 251.03125 296.769531 C 250.683594 297.117188 250.269531 297.394531 249.886719 297.460938 C 249.574219 297.53125 249.300781 297.496094 248.917969 297.253906 C 248.085938 296.804688 245.867188 294.792969 245.625 293.925781 C 245.519531 293.476562 245.695312 292.957031 245.9375 292.785156 C 246.179688 292.609375 247.082031 292.957031 247.082031 292.957031 " clip-rule="nonzero"/></clipPath></defs><rect x="-37.5" width="450" fill="#ffffff" y="-37.499999" height="449.999989" fill-opacity="1"/><rect x="-37.5" width="450" fill="#000000" y="-37.499999" height="449.999989" fill-opacity="1"/><g clip-path="url(#351d965b6e)"><g clip-path="url(#6ce7988c0d)"><g clip-path="url(#5bee41fd5a)"><g clip-path="url(#0c0cdac8f8)"><g clip-path="url(#f02865649c)"><path fill="url(#a5f5b93d49)" d="M 302.042969 -143.472656 L -126.136719 74.253906 L 92.847656 504.898438 L 521.027344 287.171875 Z M 302.042969 -143.472656 " fill-rule="nonzero"/></g></g></g></g></g><g fill="#f8d26b" fill-opacity="1"><g transform="translate(65.544104, 81.594458)"><g><path d="M -2.09375 -7.78125 L 2.96875 -3.484375 L 0.84375 -1 L -10.46875 -10.609375 L -8.34375 -13.09375 L -3.28125 -8.796875 L -5.296875 -16.6875 L -2.59375 -19.875 L -0.625 -10.734375 L 8.859375 -10.421875 L 6.015625 -7.078125 Z M -2.09375 -7.78125 "/></g></g></g><g fill="#f8d26b" fill-opacity="1"><g transform="translate(85.816801, 60.084948)"><g><path d="M -1.453125 -17.8125 L 1.109375 -19.859375 L 6.75 -12.765625 C 7.988281 -11.222656 8.5 -9.71875 8.28125 -8.25 C 8.070312 -6.789062 7.210938 -5.457031 5.703125 -4.25 C 4.191406 -3.050781 2.695312 -2.507812 1.21875 -2.625 C -0.25 -2.75 -1.601562 -3.582031 -2.84375 -5.125 L -8.484375 -12.21875 L -5.921875 -14.25 L -0.578125 -7.546875 C 0.0546875 -6.742188 0.703125 -6.25 1.359375 -6.0625 C 2.023438 -5.875 2.789062 -6.125 3.65625 -6.8125 C 4.53125 -7.519531 4.945312 -8.210938 4.90625 -8.890625 C 4.863281 -9.566406 4.523438 -10.304688 3.890625 -11.109375 Z M -1.453125 -17.8125 "/></g></g></g><g fill="#f8d26b" fill-opacity="1"><g transform="translate(110.461466, 42.467818)"><g><path d="M 11.53125 -5.953125 L 8.609375 -4.4375 L -0.1875 -10.3125 L 4.0625 -2.09375 L 1.171875 -0.609375 L -5.640625 -13.796875 L -2.75 -15.28125 L 6.046875 -9.40625 L 1.796875 -17.625 L 4.71875 -19.140625 Z M 11.53125 -5.953125 "/></g></g></g><g fill="#f8d26b" fill-opacity="1"><g transform="translate(138.115797, 29.980331)"><g><path d="M 3.53125 -4.15625 L 4.453125 -4.421875 C 5.265625 -4.660156 5.921875 -5.054688 6.421875 -5.609375 C 6.929688 -6.160156 7.257812 -6.804688 7.40625 -7.546875 C 7.5625 -8.285156 7.523438 -9.046875 7.296875 -9.828125 C 7.066406 -10.628906 6.6875 -11.300781 6.15625 -11.84375 C 5.632812 -12.382812 5.015625 -12.75 4.296875 -12.9375 C 3.585938 -13.132812 2.828125 -13.113281 2.015625 -12.875 L 1.09375 -12.609375 Z M -2.859375 -14.625 L 1.375 -15.859375 C 2.382812 -16.148438 3.367188 -16.234375 4.328125 -16.109375 C 5.285156 -15.984375 6.179688 -15.691406 7.015625 -15.234375 C 7.847656 -14.785156 8.566406 -14.179688 9.171875 -13.421875 C 9.773438 -12.660156 10.222656 -11.773438 10.515625 -10.765625 C 10.804688 -9.753906 10.898438 -8.765625 10.796875 -7.796875 C 10.691406 -6.828125 10.414062 -5.929688 9.96875 -5.109375 C 9.519531 -4.285156 8.914062 -3.566406 8.15625 -2.953125 C 7.394531 -2.335938 6.507812 -1.882812 5.5 -1.59375 L 1.265625 -0.359375 Z M -2.859375 -14.625 "/></g></g></g><g fill="#f8d26b" fill-opacity="1"><g transform="translate(167.242097, 23.139572)"><g><path d="M 8.875 -6.453125 L 6.5625 -11.546875 L 5.125 -6.125 Z M 14.890625 -1.265625 L 11.375 -0.96875 L 10.0625 -3.84375 L 4.421875 -3.359375 L 3.609375 -0.3125 L 0.109375 -0.015625 L 4.875 -15.3125 L 7.625 -15.546875 Z M 14.890625 -1.265625 "/></g></g></g><g fill="#f8d26b" fill-opacity="1"><g transform="translate(198.30879, 22.14671)"><g><path d="M 12.890625 1.484375 L 9.625 1.109375 L 5.59375 -8.671875 L 4.546875 0.515625 L 1.296875 0.15625 L 2.984375 -14.59375 L 6.234375 -14.234375 L 10.265625 -4.453125 L 11.3125 -13.640625 L 14.578125 -13.265625 Z M 12.890625 1.484375 "/></g></g></g><g fill="#f8d26b" fill-opacity="1"><g transform="translate(228.374342, 27.348659)"><g/></g></g><g fill="#f8d26b" fill-opacity="1"><g transform="translate(248.930667, 34.350273)"><g><path d="M 10.921875 -0.96875 L 11.5625 -6.546875 L 7.53125 -2.625 Z M 13.421875 6.5625 L 10.265625 5.015625 L 10.609375 1.859375 L 5.53125 -0.625 L 3.25 1.59375 L 0.09375 0.046875 L 12.03125 -10.65625 L 14.515625 -9.4375 Z M 13.421875 6.5625 "/></g></g></g><g fill="#f8d26b" fill-opacity="1"><g transform="translate(276.105156, 49.438332)"><g><path d="M 10.296875 7.875 L 7.6875 5.890625 L 9.265625 -4.5625 L 3.640625 2.78125 L 1.046875 0.796875 L 10.0625 -11 L 12.65625 -9.015625 L 11.078125 1.453125 L 16.703125 -5.90625 L 19.3125 -3.921875 Z M 10.296875 7.875 "/></g></g></g><g fill="#f8d26b" fill-opacity="1"><g transform="translate(299.21244, 69.162922)"><g><path d="M 13.9375 -2.21875 L 5.078125 5.6875 L 2.890625 3.234375 L 11.75 -4.671875 L 8.9375 -7.828125 L 11.15625 -9.8125 L 18.984375 -1.046875 L 16.765625 0.9375 Z M 13.9375 -2.21875 "/></g></g></g><g fill="#f8d26b" fill-opacity="1"><g transform="translate(316.839123, 91.0136)"><g><path d="M 2.90625 4.859375 L 9 1.21875 L 12.828125 -7.484375 L 14.828125 -4.125 L 12.09375 1.28125 L 18.125 1.390625 L 20.125 4.734375 L 10.671875 4.015625 L 4.578125 7.65625 Z M 2.90625 4.859375 "/></g></g></g><g fill="#f8d26b" fill-opacity="1"><g transform="translate(331.178223, 118.07019)"><g><path d="M 8.46875 6.96875 L 12.828125 3.453125 L 7.21875 3.40625 Z M 4.96875 14.078125 L 3.796875 10.765625 L 6.25 8.75 L 4.375 3.421875 L 1.203125 3.421875 L 0.03125 0.109375 L 16.046875 0.859375 L 16.96875 3.453125 Z M 4.96875 14.078125 "/></g></g></g><g fill="#f8d26b" fill-opacity="1"><g transform="translate(339.965015, 147.898769)"><g><path d="M 7.234375 3.578125 L 0.65625 4.53125 L 0.1875 1.296875 L 14.875 -0.828125 L 15.34375 2.40625 L 8.78125 3.359375 L 16.015625 7.0625 L 16.609375 11.203125 L 8.453125 6.625 L 1.953125 13.546875 L 1.328125 9.1875 Z M 7.234375 3.578125 "/></g></g></g><g fill="#f8d26b" fill-opacity="1"><g transform="translate(342.67144, 177.328121)"><g><path d="M 14.328125 10.703125 L 14.15625 13.984375 L 5.109375 13.53125 C 3.128906 13.425781 1.660156 12.804688 0.703125 11.671875 C -0.242188 10.546875 -0.671875 9.015625 -0.578125 7.078125 C -0.484375 5.160156 0.09375 3.6875 1.15625 2.65625 C 2.226562 1.632812 3.753906 1.175781 5.734375 1.28125 L 14.78125 1.734375 L 14.609375 5 L 6.03125 4.5625 C 5.019531 4.507812 4.226562 4.671875 3.65625 5.046875 C 3.082031 5.421875 2.765625 6.15625 2.703125 7.25 C 2.648438 8.375 2.890625 9.144531 3.421875 9.5625 C 3.960938 9.976562 4.738281 10.210938 5.75 10.265625 Z M 14.328125 10.703125 "/></g></g></g><g fill="#f8d26b" fill-opacity="1"><g transform="translate(339.503114, 207.523103)"><g><path d="M -0.3125 1.28125 L 14.125 4.734375 L 13.375 7.90625 L 1.828125 5.140625 L 0.578125 10.328125 L -2.3125 9.640625 Z M -0.3125 1.28125 "/></g></g></g><g fill="#f8d26b" fill-opacity="1"><g transform="translate(331.992845, 233.260161)"><g><path d="M 1.328125 10.890625 L 6.90625 11.34375 L 2.859375 7.453125 Z M -6.125 13.625 L -4.6875 10.421875 L -1.515625 10.65625 L 0.796875 5.5 L -1.484375 3.3125 L -0.046875 0.09375 L 11.015625 11.6875 L 9.875 14.21875 Z M -6.125 13.625 "/></g></g></g><g fill="#efc75e" fill-opacity="1"><g transform="translate(141.185109, 176.297364)"><g><path d="M 54.484375 -3.578125 C 53.898438 -2.296875 53.023438 -1.378906 51.859375 -0.828125 C 50.691406 -0.273438 49.46875 0 48.1875 0 C 46.03125 0 44.28125 -0.507812 42.9375 -1.53125 C 41.59375 -2.550781 40.515625 -3.847656 39.703125 -5.421875 C 38.648438 -7.347656 37.726562 -9.503906 36.9375 -11.890625 C 36.15625 -14.285156 35.441406 -16.675781 34.796875 -19.0625 C 34.160156 -21.457031 33.460938 -23.644531 32.703125 -25.625 C 31.304688 -29.59375 29.335938 -31.617188 26.796875 -31.703125 C 24.265625 -31.785156 21.484375 -30.367188 18.453125 -27.453125 C 17.578125 -26.585938 16.757812 -25.671875 16 -24.703125 C 15.238281 -23.742188 14.539062 -22.828125 13.90625 -21.953125 L 13.90625 -12.328125 C 13.90625 -7.722656 14.367188 -4.632812 15.296875 -3.0625 C 16.234375 -1.488281 17.632812 -0.726562 19.5 -0.78125 L 19.5 0 L 0 0 L 0 -0.78125 C 1.863281 -0.726562 3.257812 -1.488281 4.1875 -3.0625 C 5.125 -4.632812 5.59375 -7.722656 5.59375 -12.328125 L 5.59375 -47.40625 C 5.59375 -52.0625 5.125 -55.191406 4.1875 -56.796875 C 3.257812 -58.398438 1.863281 -59.144531 0 -59.03125 L 0 -59.8125 L 19.5 -59.8125 L 19.5 -59.03125 C 17.632812 -59.144531 16.234375 -58.398438 15.296875 -56.796875 C 14.367188 -55.191406 13.90625 -52.0625 13.90625 -47.40625 L 13.90625 -24.75 C 15.007812 -26.207031 16.097656 -27.519531 17.171875 -28.6875 C 18.253906 -29.851562 19.410156 -31.078125 20.640625 -32.359375 L 39.875 -52.90625 C 40.40625 -53.488281 40.816406 -54.070312 41.109375 -54.65625 C 41.398438 -55.238281 41.367188 -55.910156 41.015625 -56.671875 C 40.898438 -57.015625 40.8125 -57.21875 40.75 -57.28125 C 40.28125 -58.21875 39.695312 -58.757812 39 -58.90625 C 38.300781 -59.050781 37.367188 -59.09375 36.203125 -59.03125 L 36.203125 -59.8125 L 50.8125 -59.8125 L 50.8125 -59.03125 C 49.46875 -59.09375 48.457031 -58.859375 47.78125 -58.328125 C 47.113281 -57.804688 46.375 -57.132812 45.5625 -56.3125 C 44.863281 -55.613281 44.164062 -54.914062 43.46875 -54.21875 C 42.769531 -53.519531 42.066406 -52.820312 41.359375 -52.125 L 25.015625 -34.625 C 25.828125 -34.914062 26.640625 -35.164062 27.453125 -35.375 C 28.273438 -35.582031 29.148438 -35.6875 30.078125 -35.6875 C 33.109375 -35.6875 35.410156 -34.820312 36.984375 -33.09375 C 38.566406 -31.375 39.734375 -29.347656 40.484375 -27.015625 C 40.898438 -25.796875 41.425781 -24.148438 42.0625 -22.078125 C 42.707031 -20.015625 43.40625 -17.84375 44.15625 -15.5625 C 44.914062 -13.289062 45.703125 -11.207031 46.515625 -9.3125 C 47.335938 -7.414062 48.128906 -6.03125 48.890625 -5.15625 C 49.523438 -4.457031 50.296875 -3.914062 51.203125 -3.53125 C 52.109375 -3.15625 53 -3.347656 53.875 -4.109375 Z M 54.484375 -3.578125 "/></g></g></g><g fill="#efc75e" fill-opacity="1"><g transform="translate(165.172419, 212.767378)"><g><path d="M 33.578125 -59.8125 L 52.828125 -4.890625 C 53.285156 -3.554688 53.921875 -2.507812 54.734375 -1.75 C 55.554688 -0.988281 56.753906 -0.640625 58.328125 -0.703125 L 58.328125 0 L 40.671875 0 L 40.671875 -0.703125 C 42.179688 -0.640625 43.242188 -0.957031 43.859375 -1.65625 C 44.472656 -2.363281 44.546875 -3.441406 44.078125 -4.890625 L 38.125 -21.78125 C 36.613281 -18.570312 34.601562 -16.570312 32.09375 -15.78125 C 29.582031 -15 26.582031 -15.160156 23.09375 -16.265625 C 22.21875 -16.554688 21.179688 -16.90625 19.984375 -17.3125 C 18.785156 -17.71875 17.5625 -17.992188 16.3125 -18.140625 C 15.0625 -18.285156 13.925781 -18.140625 12.90625 -17.703125 C 11.882812 -17.265625 11.140625 -16.347656 10.671875 -14.953125 L 8.828125 -10.0625 C 8.597656 -9.300781 8.484375 -8.582031 8.484375 -7.90625 C 8.484375 -7.238281 8.597656 -6.523438 8.828125 -5.765625 C 8.941406 -5.472656 9.054688 -5.148438 9.171875 -4.796875 C 9.296875 -4.453125 9.382812 -4.132812 9.4375 -3.84375 C 9.90625 -2.5625 10.5625 -1.703125 11.40625 -1.265625 C 12.257812 -0.828125 13.382812 -0.640625 14.78125 -0.703125 L 14.78125 0 C 12.625 0 10.128906 0 7.296875 0 C 4.472656 0 2.039062 0 0 0 L 0 -0.703125 C 1.394531 -0.640625 2.53125 -0.957031 3.40625 -1.65625 C 4.28125 -2.363281 4.921875 -3.328125 5.328125 -4.546875 L 24.75 -59.8125 Z M 37.609375 -23.53125 L 25.625 -57.546875 L 12.6875 -20.90625 C 14.195312 -22.882812 16.054688 -24.0625 18.265625 -24.4375 C 20.484375 -24.820312 23.023438 -24.519531 25.890625 -23.53125 C 27.222656 -23.113281 28.585938 -22.671875 29.984375 -22.203125 C 31.390625 -21.742188 32.75 -21.554688 34.0625 -21.640625 C 35.375 -21.734375 36.554688 -22.363281 37.609375 -23.53125 Z M 37.609375 -23.53125 "/></g></g></g><g clip-path="url(#df64dc1814)"><path fill="#f7be23" d="M 167.84375 97.628906 C 167.40625 97.628906 167.050781 97.984375 167.050781 98.425781 C 167.050781 98.683594 167.175781 98.914062 167.367188 99.0625 C 166.953125 99.378906 166.441406 99.777344 165.921875 100.207031 C 163.863281 101.902344 163.402344 102.628906 163.308594 102.910156 L 163.078125 103.605469 L 162.867188 102.90625 C 162.84375 102.835938 162.46875 101.589844 162.558594 100.417969 C 162.683594 100.503906 162.835938 100.554688 163 100.554688 C 163.441406 100.554688 163.792969 100.195312 163.792969 99.757812 C 163.792969 99.316406 163.441406 98.960938 163 98.960938 C 162.5625 98.960938 162.210938 99.316406 162.210938 99.757812 C 162.210938 100.027344 162.34375 100.265625 162.546875 100.410156 L 161.558594 101.679688 L 161.371094 101.523438 C 161.355469 101.511719 160.957031 101.171875 160.597656 100.648438 C 160.558594 100.589844 160.523438 100.535156 160.488281 100.476562 C 160.757812 100.347656 160.941406 100.074219 160.941406 99.757812 C 160.941406 99.316406 160.585938 98.960938 160.148438 98.960938 C 159.710938 98.960938 159.355469 99.316406 159.355469 99.757812 C 159.355469 100.101562 159.574219 100.398438 159.882812 100.507812 C 159.835938 100.640625 159.789062 100.777344 159.742188 100.914062 C 159.066406 102.890625 158.96875 103.488281 158.96875 103.667969 L 158.96875 104.316406 L 158.558594 103.816406 C 158.519531 103.769531 157.621094 102.675781 156.726562 101.078125 C 156.203125 100.136719 155.792969 99.21875 155.503906 98.347656 C 155.464844 98.222656 155.425781 98.101562 155.390625 97.976562 C 155.488281 97.804688 155.574219 97.632812 155.648438 97.472656 C 156.789062 96.414062 158.695312 96.339844 158.695312 96.339844 C 157.808594 95.503906 156.761719 95.808594 156.066406 96.1875 C 156.359375 94.445312 155.128906 93.9375 155.128906 93.9375 C 155.128906 93.9375 153.898438 94.445312 154.1875 96.1875 C 153.496094 95.808594 152.449219 95.503906 151.5625 96.339844 C 151.5625 96.339844 153.46875 96.414062 154.609375 97.472656 C 154.683594 97.632812 154.769531 97.804688 154.867188 97.976562 C 154.832031 98.101562 154.792969 98.222656 154.753906 98.347656 C 154.464844 99.21875 154.054688 100.136719 153.53125 101.078125 C 152.636719 102.675781 151.738281 103.769531 151.699219 103.816406 L 151.289062 104.316406 L 151.289062 103.667969 C 151.289062 103.488281 151.191406 102.890625 150.515625 100.914062 C 150.40625 100.59375 150.296875 100.285156 150.195312 100 C 150.546875 99.917969 150.8125 99.601562 150.8125 99.222656 C 150.8125 98.78125 150.457031 98.425781 150.019531 98.425781 C 149.582031 98.425781 149.226562 98.78125 149.226562 99.222656 C 149.226562 99.660156 149.578125 100.015625 150.007812 100.019531 C 149.917969 100.226562 149.800781 100.4375 149.660156 100.648438 C 149.300781 101.171875 148.902344 101.511719 148.886719 101.523438 L 148.699219 101.679688 L 147.949219 100.714844 C 148.191406 100.578125 148.355469 100.320312 148.355469 100.019531 C 148.355469 99.578125 148 99.222656 147.5625 99.222656 C 147.125 99.222656 146.769531 99.578125 146.769531 100.019531 C 146.769531 100.460938 147.125 100.816406 147.5625 100.816406 C 147.613281 100.816406 147.664062 100.8125 147.710938 100.804688 C 147.710938 101.847656 147.410156 102.84375 147.390625 102.90625 L 147.179688 103.605469 L 146.949219 102.910156 C 146.855469 102.628906 146.390625 101.902344 144.335938 100.207031 C 143.792969 99.757812 143.257812 99.339844 142.835938 99.019531 C 142.996094 98.871094 143.097656 98.660156 143.097656 98.425781 C 143.097656 97.984375 142.742188 97.628906 142.304688 97.628906 C 141.867188 97.628906 141.511719 97.984375 141.511719 98.425781 C 141.511719 98.867188 141.867188 99.222656 142.304688 99.222656 C 142.5 99.222656 142.683594 99.148438 142.820312 99.03125 L 148 108.90625 L 162.257812 108.90625 L 167.40625 99.089844 C 167.53125 99.171875 167.683594 99.222656 167.84375 99.222656 C 168.28125 99.222656 168.636719 98.867188 168.636719 98.425781 C 168.636719 97.984375 168.28125 97.628906 167.84375 97.628906 " fill-opacity="1" fill-rule="nonzero"/></g><g clip-path="url(#65e51ae237)"><path fill="#f7be23" d="M 152.46875 96.15625 C 153.160156 96.296875 154.113281 96.597656 154.8125 97.25 L 154.855469 97.292969 L 154.882812 97.34375 C 154.953125 97.503906 155.039062 97.667969 155.128906 97.832031 C 155.21875 97.667969 155.304688 97.503906 155.375 97.34375 L 155.402344 97.292969 L 155.445312 97.25 C 156.144531 96.597656 157.097656 96.296875 157.789062 96.15625 C 157.324219 96.035156 156.796875 96.132812 156.210938 96.453125 L 155.671875 96.746094 L 155.773438 96.136719 C 155.96875 94.960938 155.386719 94.445312 155.128906 94.28125 C 154.871094 94.445312 154.289062 94.960938 154.484375 96.136719 L 154.585938 96.746094 L 154.046875 96.453125 C 153.460938 96.132812 152.933594 96.035156 152.46875 96.15625 Z M 142.304688 97.929688 C 142.03125 97.929688 141.8125 98.152344 141.8125 98.425781 C 141.8125 98.699219 142.03125 98.921875 142.304688 98.921875 C 142.421875 98.921875 142.535156 98.878906 142.625 98.800781 L 142.632812 98.792969 C 142.738281 98.699219 142.796875 98.566406 142.796875 98.425781 C 142.796875 98.152344 142.574219 97.929688 142.304688 97.929688 Z M 167.558594 98.828125 L 167.570312 98.839844 C 167.652344 98.890625 167.746094 98.921875 167.84375 98.921875 C 168.117188 98.921875 168.335938 98.699219 168.335938 98.425781 C 168.335938 98.152344 168.117188 97.929688 167.84375 97.929688 C 167.574219 97.929688 167.351562 98.152344 167.351562 98.425781 C 167.351562 98.582031 167.421875 98.726562 167.546875 98.820312 Z M 150.019531 98.726562 C 149.75 98.726562 149.527344 98.949219 149.527344 99.222656 C 149.527344 99.492188 149.746094 99.714844 150.011719 99.71875 L 150.074219 99.71875 L 150.128906 99.707031 C 150.351562 99.65625 150.511719 99.453125 150.511719 99.222656 C 150.511719 98.949219 150.292969 98.726562 150.019531 98.726562 Z M 162.730469 100.171875 C 162.8125 100.222656 162.90625 100.253906 163 100.253906 C 163.273438 100.253906 163.496094 100.03125 163.496094 99.757812 C 163.496094 99.484375 163.273438 99.261719 163 99.261719 C 162.730469 99.261719 162.507812 99.484375 162.507812 99.757812 C 162.507812 99.917969 162.585938 100.070312 162.71875 100.160156 Z M 160.148438 99.261719 C 159.878906 99.261719 159.65625 99.484375 159.65625 99.757812 C 159.65625 99.964844 159.789062 100.152344 159.984375 100.222656 L 160.175781 100.292969 L 160.359375 100.203125 C 160.53125 100.121094 160.640625 99.945312 160.640625 99.757812 C 160.640625 99.484375 160.421875 99.261719 160.148438 99.261719 Z M 147.5625 99.523438 C 147.292969 99.523438 147.070312 99.746094 147.070312 100.019531 C 147.070312 100.292969 147.292969 100.515625 147.5625 100.515625 C 147.59375 100.515625 147.625 100.511719 147.65625 100.507812 L 147.734375 100.492188 L 147.804688 100.453125 C 147.960938 100.363281 148.054688 100.199219 148.054688 100.019531 C 148.054688 99.746094 147.835938 99.523438 147.5625 99.523438 Z M 148.179688 108.601562 L 162.078125 108.601562 L 166.542969 100.089844 C 166.394531 100.207031 166.25 100.324219 166.109375 100.441406 C 163.980469 102.199219 163.644531 102.851562 163.59375 103.007812 L 163.066406 104.59375 L 162.578125 102.996094 C 162.566406 102.953125 162.332031 102.175781 162.265625 101.261719 L 161.601562 102.113281 L 161.179688 101.753906 C 161.132812 101.71875 160.726562 101.363281 160.351562 100.820312 C 160.3125 100.757812 160.269531 100.695312 160.234375 100.636719 L 160.183594 100.554688 L 160.167969 100.609375 C 160.117188 100.746094 160.070312 100.882812 160.027344 101.011719 C 159.320312 103.074219 159.269531 103.566406 159.269531 103.664062 L 159.269531 105.152344 L 158.328125 104.007812 C 158.289062 103.960938 157.371094 102.847656 156.464844 101.226562 C 155.929688 100.269531 155.511719 99.332031 155.21875 98.441406 C 155.1875 98.34375 155.15625 98.246094 155.128906 98.152344 C 155.101562 98.246094 155.070312 98.34375 155.039062 98.441406 C 154.746094 99.332031 154.324219 100.269531 153.792969 101.226562 C 152.886719 102.847656 151.96875 103.960938 151.929688 104.007812 L 150.988281 105.152344 L 150.988281 103.664062 C 150.988281 103.566406 150.9375 103.074219 150.230469 101.011719 C 150.179688 100.863281 150.128906 100.710938 150.074219 100.554688 C 150.023438 100.644531 149.964844 100.730469 149.90625 100.820312 C 149.53125 101.363281 149.125 101.71875 149.078125 101.753906 L 148.65625 102.113281 L 147.996094 101.261719 C 147.929688 102.152344 147.707031 102.902344 147.679688 102.996094 L 147.191406 104.59375 L 146.664062 103.007812 C 146.613281 102.851562 146.277344 102.199219 144.144531 100.4375 C 144.007812 100.324219 143.863281 100.207031 143.714844 100.089844 Z M 162.441406 109.207031 L 147.816406 109.207031 L 142.703125 99.449219 C 142.574219 99.5 142.441406 99.523438 142.304688 99.523438 C 141.703125 99.523438 141.210938 99.03125 141.210938 98.425781 C 141.210938 97.820312 141.703125 97.328125 142.304688 97.328125 C 142.90625 97.328125 143.398438 97.820312 143.398438 98.425781 C 143.398438 98.617188 143.347656 98.800781 143.257812 98.960938 C 143.707031 99.308594 144.132812 99.648438 144.527344 99.972656 C 145.976562 101.167969 146.859375 102.0625 147.15625 102.636719 C 147.230469 102.347656 147.367188 101.753906 147.402344 101.105469 C 146.875 101.027344 146.472656 100.570312 146.472656 100.019531 C 146.472656 99.414062 146.960938 98.921875 147.5625 98.921875 C 148.167969 98.921875 148.65625 99.414062 148.65625 100.019531 C 148.65625 100.300781 148.550781 100.5625 148.367188 100.761719 L 148.746094 101.246094 C 148.859375 101.140625 149.144531 100.863281 149.410156 100.476562 C 149.46875 100.390625 149.523438 100.308594 149.570312 100.222656 C 149.191406 100.050781 148.925781 99.664062 148.925781 99.222656 C 148.925781 98.617188 149.417969 98.125 150.019531 98.125 C 150.621094 98.125 151.113281 98.617188 151.113281 99.222656 C 151.113281 99.472656 151.027344 99.71875 150.871094 99.914062 C 150.785156 100.015625 150.6875 100.101562 150.574219 100.167969 C 150.652344 100.394531 150.726562 100.609375 150.796875 100.816406 C 151.253906 102.148438 151.515625 103.046875 151.574219 103.492188 C 151.839844 103.15625 152.554688 102.207031 153.269531 100.929688 C 153.785156 100.007812 154.1875 99.105469 154.46875 98.253906 C 154.492188 98.171875 154.519531 98.09375 154.542969 98.011719 C 154.480469 97.890625 154.417969 97.773438 154.363281 97.65625 C 153.3125 96.71875 151.570312 96.640625 151.550781 96.640625 L 150.832031 96.613281 L 151.359375 96.121094 C 151.816406 95.6875 152.355469 95.480469 152.960938 95.507812 C 153.246094 95.519531 153.542969 95.582031 153.84375 95.695312 C 153.839844 94.992188 154.085938 94.515625 154.316406 94.222656 C 154.625 93.828125 154.976562 93.675781 155.015625 93.660156 L 155.128906 93.613281 L 155.242188 93.660156 C 155.28125 93.675781 155.632812 93.828125 155.941406 94.222656 C 156.171875 94.515625 156.417969 94.992188 156.414062 95.695312 C 156.714844 95.582031 157.011719 95.519531 157.296875 95.507812 C 157.902344 95.480469 158.441406 95.6875 158.898438 96.121094 L 159.425781 96.613281 L 158.707031 96.640625 C 158.6875 96.640625 156.941406 96.722656 155.894531 97.65625 C 155.839844 97.773438 155.777344 97.890625 155.714844 98.011719 C 155.738281 98.09375 155.765625 98.171875 155.789062 98.253906 C 156.070312 99.105469 156.472656 100.007812 156.988281 100.929688 C 157.703125 102.207031 158.417969 103.15625 158.683594 103.492188 C 158.742188 103.046875 159.003906 102.148438 159.460938 100.816406 C 159.476562 100.761719 159.496094 100.707031 159.515625 100.652344 C 159.234375 100.449219 159.054688 100.117188 159.054688 99.757812 C 159.054688 99.152344 159.546875 98.65625 160.148438 98.65625 C 160.75 98.65625 161.242188 99.152344 161.242188 99.757812 C 161.242188 100.0625 161.113281 100.347656 160.898438 100.554688 C 161.148438 100.902344 161.40625 101.148438 161.511719 101.246094 L 162.144531 100.4375 C 161.992188 100.246094 161.910156 100.003906 161.910156 99.757812 C 161.910156 99.152344 162.398438 98.65625 163 98.65625 C 163.605469 98.65625 164.09375 99.152344 164.09375 99.757812 C 164.09375 100.363281 163.605469 100.855469 163 100.855469 C 162.949219 100.855469 162.898438 100.851562 162.84375 100.84375 C 162.851562 101.589844 163.015625 102.308594 163.101562 102.636719 C 163.398438 102.066406 164.28125 101.171875 165.730469 99.972656 C 166.101562 99.667969 166.5 99.347656 166.925781 99.019531 C 166.8125 98.847656 166.75 98.640625 166.75 98.425781 C 166.75 97.820312 167.242188 97.328125 167.84375 97.328125 C 168.445312 97.328125 168.9375 97.820312 168.9375 98.425781 C 168.9375 99.03125 168.445312 99.523438 167.84375 99.523438 C 167.738281 99.523438 167.636719 99.507812 167.539062 99.480469 L 162.441406 109.207031 " fill-opacity="1" fill-rule="nonzero"/></g><g clip-path="url(#b07e271480)"><path fill="#f7be23" d="M 162.574219 110.113281 L 147.578125 110.113281 C 147.410156 110.113281 147.277344 109.976562 147.277344 109.808594 C 147.277344 109.644531 147.410156 109.507812 147.578125 109.507812 L 162.574219 109.507812 C 162.738281 109.507812 162.871094 109.644531 162.871094 109.808594 C 162.871094 109.976562 162.738281 110.113281 162.574219 110.113281 " fill-opacity="1" fill-rule="nonzero"/></g><g clip-path="url(#ac2696bd00)"><g clip-path="url(#e61798763c)"><path fill="#f7be23" d="M 236.441406 265.371094 L 299.125 265.371094 L 299.125 303.945312 L 236.441406 303.945312 Z M 236.441406 265.371094 " fill-opacity="1" fill-rule="nonzero"/></g></g></svg>