<svg xmlns="http://www.w3.org/2000/svg" xmlns:xlink="http://www.w3.org/1999/xlink" width="1080" zoomAndPan="magnify" viewBox="0 0 810 809.999993" height="1080" preserveAspectRatio="xMidYMid meet" version="1.0"><defs><g/><clipPath id="c703cf3c9e"><path d="M 7 5 L 132 5 L 132 130 L 7 130 Z M 7 5 " clip-rule="nonzero"/></clipPath><clipPath id="7e742bca8a"><path d="M 95.652344 -16.359375 L 152.671875 95.769531 L 43.492188 151.289062 L -13.527344 39.15625 Z M 95.652344 -16.359375 " clip-rule="nonzero"/></clipPath><clipPath id="1d79ce02da"><path d="M 95.652344 -16.359375 L 152.671875 95.769531 L 43.492188 151.289062 L -13.527344 39.15625 Z M 95.652344 -16.359375 " clip-rule="nonzero"/></clipPath><clipPath id="79c9333f1a"><path d="M 95.652344 -16.359375 L 152.671875 95.769531 L 43.492188 151.289062 L -13.527344 39.15625 Z M 95.652344 -16.359375 " clip-rule="nonzero"/></clipPath><clipPath id="67082b458b"><path d="M 115.558594 27.242188 C 92.675781 1.082031 53.421875 -2.136719 28.0625 20.0625 C 22.582031 24.859375 18.140625 30.5625 14.742188 36.960938 L 14.90625 37.042969 L 14.742188 36.960938 C 8.925781 47.917969 6.628906 60.363281 8.101562 72.949219 C 9.605469 85.816406 14.972656 97.839844 23.617188 107.722656 C 46.480469 133.855469 85.691406 137.070312 111.027344 114.894531 C 136.390625 92.695312 138.445312 53.398438 115.558594 27.242188 Z M 21.433594 95.980469 C 22.402344 97.085938 23.25 97.949219 23.886719 98.566406 C 28.132812 102.671875 33.996094 102.988281 40.210938 103.320312 C 47.386719 103.707031 55.519531 104.144531 62.511719 110.652344 C 68.433594 116.164062 74.246094 120.988281 80.820312 123.179688 C 74.15625 121.195312 68.292969 116.671875 62.519531 111.652344 C 55.566406 105.597656 47.609375 104.902344 40.589844 104.289062 C 34.292969 103.738281 28.347656 103.21875 24.050781 98.992188 C 20.214844 95.222656 16.613281 90.328125 13.859375 84.597656 C 16.34375 89.613281 19.210938 93.4375 21.433594 95.980469 Z M 18.71875 92.050781 C 19.589844 93.21875 20.429688 94.246094 21.195312 95.125 C 22.273438 96.355469 23.210938 97.300781 23.902344 97.957031 C 28.042969 101.882812 33.800781 102 39.898438 102.121094 C 47.257812 102.265625 55.601562 102.429688 62.667969 109.453125 C 68.472656 115.21875 73.855469 120.21875 80.277344 122.710938 C 73.992188 120.441406 68.386719 115.777344 62.679688 110.464844 C 55.621094 103.894531 47.441406 103.457031 40.222656 103.066406 C 34.058594 102.738281 28.238281 102.425781 24.058594 98.386719 C 23.351562 97.699219 21.199219 95.515625 18.71875 92.050781 Z M 62.359375 112.839844 C 55.53125 107.296875 47.820312 106.363281 41.019531 105.542969 C 34.566406 104.765625 28.472656 104.027344 24.039062 99.597656 C 20.589844 96.148438 17.332031 91.78125 14.707031 86.722656 C 17.0625 91.136719 19.644531 94.523438 21.652344 96.816406 C 22.519531 97.808594 23.28125 98.597656 23.867188 99.175781 C 28.230469 103.46875 34.226562 103.992188 40.570312 104.546875 C 47.546875 105.15625 55.457031 105.847656 62.351562 111.847656 C 68.277344 117.003906 74.304688 121.640625 81.191406 123.570312 C 74.199219 121.851562 68.117188 117.511719 62.359375 112.835938 Z M 81.417969 123.910156 C 74.144531 122.445312 67.882812 118.316406 62.199219 114.023438 C 55.53125 108.992188 48.410156 107.898438 41.519531 106.839844 C 34.882812 105.820312 28.617188 104.855469 24.027344 100.203125 C 20.585938 96.710938 17.339844 92.308594 14.714844 87.230469 C 17.148438 91.820312 19.820312 95.324219 21.855469 97.648438 C 22.628906 98.53125 23.3125 99.25 23.851562 99.789062 C 28.351562 104.285156 34.492188 105.027344 40.988281 105.8125 C 48.085938 106.667969 55.425781 107.554688 62.191406 113.046875 C 68.0625 117.8125 74.265625 122.230469 81.417969 123.910156 Z M 21.925781 98.34375 C 22.546875 99.054688 23.183594 99.738281 23.832031 100.398438 C 28.484375 105.113281 34.796875 106.085938 41.480469 107.109375 C 48.332031 108.164062 55.421875 109.253906 62.03125 114.246094 C 67.347656 118.257812 73.671875 122.46875 80.859375 124.089844 C 74.023438 122.792969 67.847656 119.28125 62.035156 115.210938 C 55.566406 110.683594 48.726562 109.414062 42.109375 108.183594 C 35.257812 106.914062 28.78125 105.710938 24.015625 100.8125 C 20.242188 96.933594 16.695312 91.980469 13.957031 86.226562 C 16.113281 90.660156 18.824219 94.800781 21.925781 98.347656 Z M 22.097656 99.144531 C 22.65625 99.785156 23.230469 100.40625 23.8125 101.007812 C 28.644531 105.972656 35.164062 107.179688 42.0625 108.460938 C 48.648438 109.683594 55.457031 110.949219 61.875 115.441406 C 67.460938 119.351562 74.96875 123.953125 83.496094 124.816406 C 83.882812 124.855469 84.269531 124.878906 84.660156 124.902344 C 76.25 124.617188 68.816406 120.886719 61.875 116.394531 C 55.652344 112.371094 49.128906 110.957031 42.820312 109.59375 C 35.707031 108.050781 28.984375 106.597656 24.007812 101.414062 C 20.320312 97.582031 16.855469 92.714844 14.140625 87.089844 C 16.304688 91.496094 19.003906 95.609375 22.097656 99.144531 Z M 22.789062 103.019531 C 23.097656 103.367188 23.410156 103.714844 23.722656 104.058594 C 30.160156 111.050781 38.695312 113.757812 47.730469 116.621094 C 52.121094 118.011719 56.660156 119.449219 61.085938 121.433594 C 70.03125 125.441406 78.507812 126.96875 86.636719 126.015625 C 78.527344 127.171875 70.039062 125.9375 61.054688 122.328125 C 57.457031 120.882812 53.789062 119.671875 50.238281 118.503906 C 40.328125 115.234375 30.96875 112.148438 23.949219 104.449219 C 22.347656 102.695312 20.824219 100.78125 19.398438 98.738281 C 20.464844 100.222656 21.59375 101.65625 22.789062 103.019531 Z M 19.105469 97.742188 C 20.214844 99.304688 21.398438 100.804688 22.648438 102.234375 C 23.003906 102.644531 23.371094 103.050781 23.742188 103.449219 C 29.699219 109.859375 37.609375 112.207031 45.980469 114.699219 C 51.003906 116.191406 56.199219 117.734375 61.246094 120.238281 C 68.816406 123.992188 75.949219 125.894531 82.828125 125.949219 C 75.90625 126.109375 68.726562 124.507812 61.21875 121.144531 C 56.773438 119.152344 52.226562 117.707031 47.828125 116.316406 C 38.835938 113.464844 30.339844 110.773438 23.960938 103.84375 C 22.246094 101.980469 20.617188 99.9375 19.105469 97.742188 Z M 22.1875 99.863281 C 22.710938 100.460938 23.246094 101.046875 23.792969 101.617188 C 28.835938 106.863281 35.597656 108.328125 42.757812 109.878906 C 49.039062 111.238281 55.535156 112.644531 61.714844 116.640625 C 70.074219 122.046875 76.871094 124.65625 83.75 125.101562 C 75.503906 124.816406 68.214844 121.453125 61.710938 117.582031 C 55.789062 114.058594 49.632812 112.542969 43.675781 111.082031 C 36.242188 109.253906 29.222656 107.527344 23.996094 102.023438 C 21.53125 99.429688 19.167969 96.371094 17.054688 92.941406 C 18.597656 95.402344 20.316406 97.722656 22.1875 99.867188 Z M 22.347656 100.65625 C 22.8125 101.191406 23.289062 101.714844 23.777344 102.226562 C 29.066406 107.792969 36.125 109.53125 43.601562 111.371094 C 49.535156 112.828125 55.671875 114.339844 61.558594 117.839844 C 69.675781 122.671875 76.679688 125.066406 83.535156 125.363281 C 75.125 125.257812 67.757812 122.152344 61.546875 118.769531 C 56.003906 115.746094 50.273438 114.183594 44.730469 112.667969 C 36.90625 110.53125 29.511719 108.515625 23.984375 102.628906 C 21.875 100.390625 19.902344 97.875 18.113281 95.132812 C 19.417969 97.074219 20.828125 98.921875 22.347656 100.65625 Z M 22.5 101.445312 C 22.910156 101.917969 23.332031 102.382812 23.757812 102.835938 C 29.347656 108.785156 36.78125 110.816406 44.652344 112.964844 C 50.175781 114.472656 55.886719 116.03125 61.402344 119.035156 C 67.160156 122.171875 73.90625 125.074219 81.546875 125.597656 C 75.109375 125.332031 68.4375 123.453125 61.382812 119.953125 C 56.316406 117.441406 51.109375 115.894531 46.074219 114.394531 C 37.742188 111.921875 29.875 109.582031 23.972656 103.234375 C 22.132812 101.253906 20.394531 99.058594 18.792969 96.695312 C 19.949219 98.351562 21.183594 99.941406 22.5 101.445312 Z M 22.933594 103.800781 C 23.1875 104.09375 23.445312 104.382812 23.707031 104.667969 C 30.785156 112.429688 40.1875 115.53125 50.136719 118.8125 C 53.679688 119.980469 57.34375 121.1875 60.933594 122.632812 C 68.601562 125.710938 75.917969 127.066406 82.941406 126.699219 C 75.871094 127.28125 68.507812 126.226562 60.890625 123.511719 C 58.523438 122.667969 56.117188 121.871094 53.789062 121.097656 C 42.523438 117.367188 31.886719 113.84375 23.941406 105.050781 C 21.777344 102.660156 19.839844 100.117188 18.121094 97.460938 C 19.589844 99.6875 21.195312 101.808594 22.933594 103.800781 Z M 23.074219 104.585938 C 23.277344 104.816406 23.484375 105.050781 23.691406 105.277344 C 31.695312 114.136719 42.375 117.671875 53.679688 121.417969 C 56.007812 122.191406 58.414062 122.988281 60.777344 123.828125 C 68.457031 126.566406 75.878906 127.628906 83.007812 127.035156 C 75.828125 127.84375 68.355469 127.078125 60.726562 124.699219 L 59.582031 124.34375 C 46.6875 120.328125 33.351562 116.171875 23.929688 105.660156 C 23.769531 105.480469 23.613281 105.304688 23.453125 105.125 C 21.78125 103.210938 20.25 101.207031 18.847656 99.136719 C 20.15625 101.035156 21.5625 102.863281 23.074219 104.585938 Z M 23.1875 105.339844 C 23.347656 105.523438 23.507812 105.707031 23.671875 105.890625 C 33.15625 116.476562 46.539062 120.644531 59.480469 124.671875 L 60.621094 125.027344 C 68.296875 127.421875 75.816406 128.195312 83.035156 127.382812 C 75.761719 128.414062 68.1875 127.9375 60.558594 125.886719 C 48.082031 122.539062 33.976562 117.585938 23.914062 106.265625 C 23.808594 106.144531 23.707031 106.027344 23.601562 105.90625 C 22.464844 104.609375 21.398438 103.273438 20.386719 101.898438 C 21.273438 103.074219 22.207031 104.222656 23.183594 105.339844 Z M 23.894531 107.476562 C 22.769531 106.191406 21.707031 104.867188 20.699219 103.511719 C 21.597656 104.695312 22.535156 105.851562 23.523438 106.976562 L 23.640625 107.109375 C 32.449219 117.082031 44.789062 123.914062 60.316406 127.425781 C 67.636719 129.078125 74.882812 129.375 81.84375 128.378906 C 61.226562 131.925781 38.984375 124.722656 23.898438 107.480469 Z M 60.394531 127.074219 C 44.941406 123.582031 32.664062 116.785156 23.90625 106.871094 L 23.796875 106.746094 C 22.699219 105.492188 21.660156 104.203125 20.675781 102.878906 C 21.523438 103.988281 22.40625 105.074219 23.328125 106.132812 C 23.4375 106.253906 23.546875 106.375 23.652344 106.5 C 33.777344 117.890625 47.945312 122.863281 60.46875 126.226562 C 69.371094 128.617188 78.199219 128.882812 86.566406 127.121094 C 78.214844 129.082031 69.363281 129.101562 60.394531 127.074219 Z M 110.21875 115.097656 C 110.117188 115.183594 110.019531 115.269531 109.917969 115.351562 C 109.804688 115.441406 109.695312 115.535156 109.582031 115.625 C 109.492188 115.703125 109.398438 115.777344 109.304688 115.851562 C 109.207031 115.925781 109.109375 116.007812 109.015625 116.082031 C 108.9375 116.144531 108.855469 116.203125 108.777344 116.261719 C 108.667969 116.347656 108.558594 116.425781 108.449219 116.511719 C 108.433594 116.523438 108.414062 116.535156 108.398438 116.546875 C 108.171875 116.714844 107.949219 116.875 107.726562 117.039062 C 107.714844 117.046875 107.703125 117.050781 107.695312 117.058594 C 107.355469 117.300781 107.015625 117.53125 106.679688 117.761719 C 106.617188 117.800781 106.554688 117.847656 106.492188 117.886719 C 106.308594 118.007812 106.125 118.136719 105.941406 118.253906 C 105.894531 118.285156 105.847656 118.3125 105.796875 118.34375 C 105.3125 118.65625 104.828125 118.949219 104.347656 119.234375 C 104.179688 119.332031 104.015625 119.429688 103.847656 119.523438 C 103.496094 119.726562 103.144531 119.917969 102.796875 120.109375 C 102.527344 120.253906 102.257812 120.394531 101.992188 120.53125 C 101.957031 120.546875 101.925781 120.566406 101.890625 120.582031 C 101.8125 120.625 101.734375 120.660156 101.65625 120.699219 C 83.398438 129.699219 72.546875 118.917969 62.84375 109.277344 C 55.707031 102.1875 47.308594 102.019531 39.902344 101.875 C 33.855469 101.753906 28.144531 101.640625 24.074219 97.777344 C 22.066406 95.878906 8.507812 82.21875 8.734375 61.277344 C 8.785156 58.605469 9.042969 55.859375 9.550781 53.058594 C 9.570312 52.949219 9.589844 52.839844 9.609375 52.726562 C 9.699219 52.261719 9.800781 51.792969 9.898438 51.324219 C 9.996094 50.882812 10.09375 50.4375 10.203125 49.996094 C 10.246094 49.808594 10.296875 49.621094 10.34375 49.433594 C 10.515625 48.765625 10.695312 48.09375 10.890625 47.425781 C 10.890625 47.425781 10.890625 47.425781 10.890625 47.421875 C 11.109375 46.683594 11.347656 45.949219 11.597656 45.210938 C 11.625 45.125 11.65625 45.039062 11.683594 44.957031 C 11.890625 44.359375 12.109375 43.765625 12.339844 43.171875 C 12.441406 42.910156 12.542969 42.648438 12.648438 42.386719 C 12.753906 42.117188 12.867188 41.851562 12.980469 41.582031 C 13.027344 41.46875 13.074219 41.355469 13.125 41.242188 C 13.144531 41.191406 13.164062 41.140625 13.1875 41.09375 C 13.339844 40.738281 13.488281 40.386719 13.648438 40.035156 C 13.671875 39.992188 13.6875 39.949219 13.707031 39.90625 C 13.71875 39.878906 13.730469 39.855469 13.742188 39.832031 C 13.789062 39.726562 13.839844 39.625 13.886719 39.519531 C 14.011719 39.257812 14.136719 38.996094 14.265625 38.734375 C 14.292969 38.675781 14.320312 38.617188 14.347656 38.5625 C 14.402344 38.453125 14.457031 38.339844 14.511719 38.230469 C 14.558594 38.144531 14.597656 38.058594 14.640625 37.972656 C 14.785156 37.695312 14.921875 37.410156 15.066406 37.132812 C 18.4375 30.785156 22.953125 25.1875 28.382812 20.429688 C 53.542969 -1.589844 92.484375 1.609375 115.191406 27.5625 C 137.898438 53.515625 135.945312 92.59375 110.789062 114.617188 C 110.601562 114.78125 110.410156 114.941406 110.222656 115.101562 Z M 110.21875 115.097656 " clip-rule="nonzero"/></clipPath><linearGradient x1="-142.991529" gradientTransform="matrix(0.0816807, 0.160632, -0.160544, 0.0816362, 95.635013, -16.35106)" y1="339.92001" x2="866.574351" gradientUnits="userSpaceOnUse" y2="339.92001" id="02ff8812b9"><stop stop-opacity="1" stop-color="rgb(74.099731%, 39.599609%, 7.499695%)" offset="0"/><stop stop-opacity="1" stop-color="rgb(74.099731%, 39.599609%, 7.499695%)" offset="0.0625"/><stop stop-opacity="1" stop-color="rgb(74.099731%, 39.599609%, 7.499695%)" offset="0.078125"/><stop stop-opacity="1" stop-color="rgb(74.385071%, 40.097046%, 7.905579%)" offset="0.0820312"/><stop stop-opacity="1" stop-color="rgb(74.671936%, 40.596008%, 8.312988%)" offset="0.0859375"/><stop stop-opacity="1" stop-color="rgb(75.224304%, 41.558838%, 9.09729%)" offset="0.0898438"/><stop stop-opacity="1" stop-color="rgb(75.776672%, 42.521667%, 9.883118%)" offset="0.09375"/><stop stop-opacity="1" stop-color="rgb(76.329041%, 43.482971%, 10.667419%)" offset="0.0976562"/><stop stop-opacity="1" stop-color="rgb(76.882935%, 44.445801%, 11.453247%)" offset="0.101562"/><stop stop-opacity="1" stop-color="rgb(77.435303%, 45.407104%, 12.237549%)" offset="0.105469"/><stop stop-opacity="1" stop-color="rgb(77.987671%, 46.369934%, 13.023376%)" offset="0.109375"/><stop stop-opacity="1" stop-color="rgb(78.540039%, 47.331238%, 13.807678%)" offset="0.113281"/><stop stop-opacity="1" stop-color="rgb(79.092407%, 48.294067%, 14.593506%)" offset="0.117188"/><stop stop-opacity="1" stop-color="rgb(79.644775%, 49.255371%, 15.377808%)" offset="0.121094"/><stop stop-opacity="1" stop-color="rgb(80.197144%, 50.218201%, 16.163635%)" offset="0.125"/><stop stop-opacity="1" stop-color="rgb(80.749512%, 51.179504%, 16.947937%)" offset="0.128906"/><stop stop-opacity="1" stop-color="rgb(81.303406%, 52.142334%, 17.733765%)" offset="0.132812"/><stop stop-opacity="1" stop-color="rgb(81.855774%, 53.103638%, 18.518066%)" offset="0.136719"/><stop stop-opacity="1" stop-color="rgb(82.408142%, 54.066467%, 19.303894%)" offset="0.140625"/><stop stop-opacity="1" stop-color="rgb(82.96051%, 55.027771%, 20.088196%)" offset="0.144531"/><stop stop-opacity="1" stop-color="rgb(83.512878%, 55.990601%, 20.874023%)" offset="0.148438"/><stop stop-opacity="1" stop-color="rgb(84.065247%, 56.95343%, 21.658325%)" offset="0.152344"/><stop stop-opacity="1" stop-color="rgb(84.617615%, 57.91626%, 22.444153%)" offset="0.15625"/><stop stop-opacity="1" stop-color="rgb(85.169983%, 58.877563%, 23.228455%)" offset="0.160156"/><stop stop-opacity="1" stop-color="rgb(85.722351%, 59.840393%, 24.014282%)" offset="0.164062"/><stop stop-opacity="1" stop-color="rgb(86.274719%, 60.801697%, 24.798584%)" offset="0.167969"/><stop stop-opacity="1" stop-color="rgb(86.828613%, 61.764526%, 25.584412%)" offset="0.171875"/><stop stop-opacity="1" stop-color="rgb(87.380981%, 62.72583%, 26.370239%)" offset="0.175781"/><stop stop-opacity="1" stop-color="rgb(87.93335%, 63.68866%, 27.156067%)" offset="0.179687"/><stop stop-opacity="1" stop-color="rgb(88.485718%, 64.649963%, 27.940369%)" offset="0.183594"/><stop stop-opacity="1" stop-color="rgb(89.038086%, 65.612793%, 28.726196%)" offset="0.1875"/><stop stop-opacity="1" stop-color="rgb(89.590454%, 66.574097%, 29.510498%)" offset="0.191406"/><stop stop-opacity="1" stop-color="rgb(90.142822%, 67.536926%, 30.296326%)" offset="0.195312"/><stop stop-opacity="1" stop-color="rgb(90.69519%, 68.49823%, 31.080627%)" offset="0.199219"/><stop stop-opacity="1" stop-color="rgb(91.249084%, 69.46106%, 31.866455%)" offset="0.203125"/><stop stop-opacity="1" stop-color="rgb(91.801453%, 70.423889%, 32.650757%)" offset="0.207031"/><stop stop-opacity="1" stop-color="rgb(92.353821%, 71.386719%, 33.436584%)" offset="0.210938"/><stop stop-opacity="1" stop-color="rgb(92.906189%, 72.348022%, 34.220886%)" offset="0.214844"/><stop stop-opacity="1" stop-color="rgb(93.458557%, 73.310852%, 35.006714%)" offset="0.21875"/><stop stop-opacity="1" stop-color="rgb(94.010925%, 74.272156%, 35.791016%)" offset="0.222656"/><stop stop-opacity="1" stop-color="rgb(94.563293%, 75.234985%, 36.576843%)" offset="0.226562"/><stop stop-opacity="1" stop-color="rgb(95.115662%, 76.196289%, 37.361145%)" offset="0.230469"/><stop stop-opacity="1" stop-color="rgb(95.669556%, 77.159119%, 38.146973%)" offset="0.234375"/><stop stop-opacity="1" stop-color="rgb(96.221924%, 78.120422%, 38.931274%)" offset="0.238281"/><stop stop-opacity="1" stop-color="rgb(96.774292%, 79.083252%, 39.717102%)" offset="0.242187"/><stop stop-opacity="1" stop-color="rgb(97.32666%, 80.044556%, 40.501404%)" offset="0.246094"/><stop stop-opacity="1" stop-color="rgb(97.879028%, 81.007385%, 41.287231%)" offset="0.25"/><stop stop-opacity="1" stop-color="rgb(98.431396%, 81.968689%, 42.071533%)" offset="0.253906"/><stop stop-opacity="1" stop-color="rgb(98.983765%, 82.931519%, 42.857361%)" offset="0.257812"/><stop stop-opacity="1" stop-color="rgb(99.447632%, 83.740234%, 43.516541%)" offset="0.261719"/><stop stop-opacity="1" stop-color="rgb(99.913025%, 84.54895%, 44.177246%)" offset="0.265625"/><stop stop-opacity="1" stop-color="rgb(99.385071%, 83.630371%, 43.426514%)" offset="0.269531"/><stop stop-opacity="1" stop-color="rgb(98.858643%, 82.711792%, 42.677307%)" offset="0.273438"/><stop stop-opacity="1" stop-color="rgb(98.330688%, 81.793213%, 41.928101%)" offset="0.277344"/><stop stop-opacity="1" stop-color="rgb(97.802734%, 80.87616%, 41.178894%)" offset="0.28125"/><stop stop-opacity="1" stop-color="rgb(97.27478%, 79.957581%, 40.429688%)" offset="0.285156"/><stop stop-opacity="1" stop-color="rgb(96.748352%, 79.039001%, 39.680481%)" offset="0.289062"/><stop stop-opacity="1" stop-color="rgb(96.220398%, 78.120422%, 38.931274%)" offset="0.292969"/><stop stop-opacity="1" stop-color="rgb(95.69397%, 77.201843%, 38.182068%)" offset="0.296875"/><stop stop-opacity="1" stop-color="rgb(95.166016%, 76.283264%, 37.431335%)" offset="0.300781"/><stop stop-opacity="1" stop-color="rgb(94.638062%, 75.364685%, 36.682129%)" offset="0.304687"/><stop stop-opacity="1" stop-color="rgb(94.110107%, 74.446106%, 35.932922%)" offset="0.308594"/><stop stop-opacity="1" stop-color="rgb(93.583679%, 73.527527%, 35.183716%)" offset="0.3125"/><stop stop-opacity="1" stop-color="rgb(93.055725%, 72.608948%, 34.434509%)" offset="0.316406"/><stop stop-opacity="1" stop-color="rgb(92.529297%, 71.691895%, 33.685303%)" offset="0.320312"/><stop stop-opacity="1" stop-color="rgb(92.001343%, 70.773315%, 32.936096%)" offset="0.324219"/><stop stop-opacity="1" stop-color="rgb(91.473389%, 69.854736%, 32.18689%)" offset="0.328125"/><stop stop-opacity="1" stop-color="rgb(90.945435%, 68.936157%, 31.436157%)" offset="0.332031"/><stop stop-opacity="1" stop-color="rgb(90.419006%, 68.017578%, 30.686951%)" offset="0.335938"/><stop stop-opacity="1" stop-color="rgb(89.891052%, 67.098999%, 29.937744%)" offset="0.339844"/><stop stop-opacity="1" stop-color="rgb(89.364624%, 66.18042%, 29.188538%)" offset="0.34375"/><stop stop-opacity="1" stop-color="rgb(88.83667%, 65.261841%, 28.439331%)" offset="0.347656"/><stop stop-opacity="1" stop-color="rgb(88.310242%, 64.343262%, 27.690125%)" offset="0.351562"/><stop stop-opacity="1" stop-color="rgb(87.782288%, 63.424683%, 26.940918%)" offset="0.355469"/><stop stop-opacity="1" stop-color="rgb(87.254333%, 62.506104%, 26.191711%)" offset="0.359375"/><stop stop-opacity="1" stop-color="rgb(86.726379%, 61.587524%, 25.440979%)" offset="0.363281"/><stop stop-opacity="1" stop-color="rgb(86.199951%, 60.670471%, 24.691772%)" offset="0.367188"/><stop stop-opacity="1" stop-color="rgb(85.671997%, 59.751892%, 23.942566%)" offset="0.371094"/><stop stop-opacity="1" stop-color="rgb(85.145569%, 58.833313%, 23.193359%)" offset="0.375"/><stop stop-opacity="1" stop-color="rgb(84.617615%, 57.914734%, 22.444153%)" offset="0.378906"/><stop stop-opacity="1" stop-color="rgb(84.089661%, 56.996155%, 21.694946%)" offset="0.382812"/><stop stop-opacity="1" stop-color="rgb(83.561707%, 56.077576%, 20.94574%)" offset="0.386719"/><stop stop-opacity="1" stop-color="rgb(83.035278%, 55.158997%, 20.196533%)" offset="0.390625"/><stop stop-opacity="1" stop-color="rgb(82.507324%, 54.240417%, 19.445801%)" offset="0.394531"/><stop stop-opacity="1" stop-color="rgb(81.980896%, 53.321838%, 18.696594%)" offset="0.398438"/><stop stop-opacity="1" stop-color="rgb(81.452942%, 52.403259%, 17.947388%)" offset="0.402344"/><stop stop-opacity="1" stop-color="rgb(80.924988%, 51.486206%, 17.198181%)" offset="0.40625"/><stop stop-opacity="1" stop-color="rgb(80.397034%, 50.567627%, 16.448975%)" offset="0.410156"/><stop stop-opacity="1" stop-color="rgb(79.870605%, 49.649048%, 15.699768%)" offset="0.414062"/><stop stop-opacity="1" stop-color="rgb(79.342651%, 48.730469%, 14.949036%)" offset="0.417969"/><stop stop-opacity="1" stop-color="rgb(78.816223%, 47.81189%, 14.199829%)" offset="0.421875"/><stop stop-opacity="1" stop-color="rgb(78.288269%, 46.893311%, 13.450623%)" offset="0.425781"/><stop stop-opacity="1" stop-color="rgb(77.760315%, 45.974731%, 12.701416%)" offset="0.429687"/><stop stop-opacity="1" stop-color="rgb(77.232361%, 45.056152%, 11.952209%)" offset="0.433594"/><stop stop-opacity="1" stop-color="rgb(76.705933%, 44.137573%, 11.203003%)" offset="0.4375"/><stop stop-opacity="1" stop-color="rgb(76.177979%, 43.218994%, 10.453796%)" offset="0.441406"/><stop stop-opacity="1" stop-color="rgb(75.65155%, 42.301941%, 9.70459%)" offset="0.445312"/><stop stop-opacity="1" stop-color="rgb(75.123596%, 41.383362%, 8.953857%)" offset="0.449219"/><stop stop-opacity="1" stop-color="rgb(74.595642%, 40.464783%, 8.204651%)" offset="0.453125"/><stop stop-opacity="1" stop-color="rgb(74.653625%, 40.565491%, 8.287048%)" offset="0.457031"/><stop stop-opacity="1" stop-color="rgb(74.713135%, 40.667725%, 8.370972%)" offset="0.460937"/><stop stop-opacity="1" stop-color="rgb(75.292969%, 41.677856%, 9.194946%)" offset="0.464844"/><stop stop-opacity="1" stop-color="rgb(75.872803%, 42.687988%, 10.020447%)" offset="0.46875"/><stop stop-opacity="1" stop-color="rgb(76.452637%, 43.69812%, 10.844421%)" offset="0.472656"/><stop stop-opacity="1" stop-color="rgb(77.033997%, 44.709778%, 11.668396%)" offset="0.476562"/><stop stop-opacity="1" stop-color="rgb(77.613831%, 45.71991%, 12.492371%)" offset="0.480469"/><stop stop-opacity="1" stop-color="rgb(78.193665%, 46.730042%, 13.317871%)" offset="0.484375"/><stop stop-opacity="1" stop-color="rgb(78.773499%, 47.740173%, 14.141846%)" offset="0.488281"/><stop stop-opacity="1" stop-color="rgb(79.354858%, 48.750305%, 14.96582%)" offset="0.492187"/><stop stop-opacity="1" stop-color="rgb(79.934692%, 49.760437%, 15.789795%)" offset="0.496094"/><stop stop-opacity="1" stop-color="rgb(80.514526%, 50.770569%, 16.615295%)" offset="0.5"/><stop stop-opacity="1" stop-color="rgb(81.09436%, 51.780701%, 17.43927%)" offset="0.503906"/><stop stop-opacity="1" stop-color="rgb(81.67572%, 52.790833%, 18.263245%)" offset="0.507812"/><stop stop-opacity="1" stop-color="rgb(82.255554%, 53.800964%, 19.087219%)" offset="0.511719"/><stop stop-opacity="1" stop-color="rgb(82.835388%, 54.812622%, 19.91272%)" offset="0.515625"/><stop stop-opacity="1" stop-color="rgb(83.415222%, 55.822754%, 20.736694%)" offset="0.519531"/><stop stop-opacity="1" stop-color="rgb(83.996582%, 56.832886%, 21.560669%)" offset="0.523438"/><stop stop-opacity="1" stop-color="rgb(84.576416%, 57.843018%, 22.384644%)" offset="0.527344"/><stop stop-opacity="1" stop-color="rgb(85.15625%, 58.853149%, 23.210144%)" offset="0.53125"/><stop stop-opacity="1" stop-color="rgb(85.736084%, 59.863281%, 24.034119%)" offset="0.535156"/><stop stop-opacity="1" stop-color="rgb(86.315918%, 60.873413%, 24.858093%)" offset="0.539062"/><stop stop-opacity="1" stop-color="rgb(86.895752%, 61.883545%, 25.682068%)" offset="0.542969"/><stop stop-opacity="1" stop-color="rgb(87.477112%, 62.893677%, 26.507568%)" offset="0.546875"/><stop stop-opacity="1" stop-color="rgb(88.056946%, 63.903809%, 27.331543%)" offset="0.550781"/><stop stop-opacity="1" stop-color="rgb(88.63678%, 64.91394%, 28.155518%)" offset="0.554688"/><stop stop-opacity="1" stop-color="rgb(89.216614%, 65.924072%, 28.979492%)" offset="0.558594"/><stop stop-opacity="1" stop-color="rgb(89.797974%, 66.93573%, 29.804993%)" offset="0.5625"/><stop stop-opacity="1" stop-color="rgb(90.377808%, 67.945862%, 30.628967%)" offset="0.566406"/><stop stop-opacity="1" stop-color="rgb(90.957642%, 68.955994%, 31.452942%)" offset="0.570312"/><stop stop-opacity="1" stop-color="rgb(91.537476%, 69.966125%, 32.276917%)" offset="0.574219"/><stop stop-opacity="1" stop-color="rgb(92.118835%, 70.976257%, 33.102417%)" offset="0.578125"/><stop stop-opacity="1" stop-color="rgb(92.698669%, 71.986389%, 33.926392%)" offset="0.582031"/><stop stop-opacity="1" stop-color="rgb(93.278503%, 72.996521%, 34.750366%)" offset="0.585938"/><stop stop-opacity="1" stop-color="rgb(93.858337%, 74.006653%, 35.574341%)" offset="0.589844"/><stop stop-opacity="1" stop-color="rgb(94.439697%, 75.016785%, 36.399841%)" offset="0.59375"/><stop stop-opacity="1" stop-color="rgb(95.019531%, 76.026917%, 37.223816%)" offset="0.597656"/><stop stop-opacity="1" stop-color="rgb(95.599365%, 77.038574%, 38.047791%)" offset="0.601562"/><stop stop-opacity="1" stop-color="rgb(96.179199%, 78.048706%, 38.871765%)" offset="0.605469"/><stop stop-opacity="1" stop-color="rgb(96.760559%, 79.058838%, 39.697266%)" offset="0.609375"/><stop stop-opacity="1" stop-color="rgb(97.340393%, 80.06897%, 40.52124%)" offset="0.613281"/><stop stop-opacity="1" stop-color="rgb(97.920227%, 81.079102%, 41.345215%)" offset="0.617188"/><stop stop-opacity="1" stop-color="rgb(98.500061%, 82.089233%, 42.169189%)" offset="0.621094"/><stop stop-opacity="1" stop-color="rgb(99.079895%, 83.099365%, 42.99469%)" offset="0.625"/><stop stop-opacity="1" stop-color="rgb(99.397278%, 83.651733%, 43.444824%)" offset="0.628906"/><stop stop-opacity="1" stop-color="rgb(99.714661%, 84.204102%, 43.894958%)" offset="0.632812"/><stop stop-opacity="1" stop-color="rgb(99.031067%, 83.015442%, 42.9245%)" offset="0.636719"/><stop stop-opacity="1" stop-color="rgb(98.348999%, 81.826782%, 41.955566%)" offset="0.640625"/><stop stop-opacity="1" stop-color="rgb(97.666931%, 80.638123%, 40.985107%)" offset="0.644531"/><stop stop-opacity="1" stop-color="rgb(96.984863%, 79.449463%, 40.016174%)" offset="0.648437"/><stop stop-opacity="1" stop-color="rgb(96.30127%, 78.260803%, 39.045715%)" offset="0.652344"/><stop stop-opacity="1" stop-color="rgb(95.619202%, 77.072144%, 38.076782%)" offset="0.65625"/><stop stop-opacity="1" stop-color="rgb(94.937134%, 75.883484%, 37.106323%)" offset="0.660156"/><stop stop-opacity="1" stop-color="rgb(94.255066%, 74.694824%, 36.135864%)" offset="0.664062"/><stop stop-opacity="1" stop-color="rgb(93.571472%, 73.506165%, 35.165405%)" offset="0.667969"/><stop stop-opacity="1" stop-color="rgb(92.889404%, 72.319031%, 34.196472%)" offset="0.671875"/><stop stop-opacity="1" stop-color="rgb(92.205811%, 71.130371%, 33.226013%)" offset="0.675781"/><stop stop-opacity="1" stop-color="rgb(91.523743%, 69.941711%, 32.25708%)" offset="0.679687"/><stop stop-opacity="1" stop-color="rgb(90.841675%, 68.753052%, 31.286621%)" offset="0.683594"/><stop stop-opacity="1" stop-color="rgb(90.159607%, 67.564392%, 30.317688%)" offset="0.6875"/><stop stop-opacity="1" stop-color="rgb(89.476013%, 66.375732%, 29.347229%)" offset="0.691406"/><stop stop-opacity="1" stop-color="rgb(88.793945%, 65.187073%, 28.378296%)" offset="0.695312"/><stop stop-opacity="1" stop-color="rgb(88.110352%, 63.998413%, 27.407837%)" offset="0.699219"/><stop stop-opacity="1" stop-color="rgb(87.428284%, 62.809753%, 26.438904%)" offset="0.703125"/><stop stop-opacity="1" stop-color="rgb(86.746216%, 61.621094%, 25.468445%)" offset="0.707031"/><stop stop-opacity="1" stop-color="rgb(86.064148%, 60.432434%, 24.497986%)" offset="0.710937"/><stop stop-opacity="1" stop-color="rgb(85.380554%, 59.243774%, 23.527527%)" offset="0.714844"/><stop stop-opacity="1" stop-color="rgb(84.698486%, 58.055115%, 22.558594%)" offset="0.71875"/><stop stop-opacity="1" stop-color="rgb(84.014893%, 56.866455%, 21.588135%)" offset="0.722656"/><stop stop-opacity="1" stop-color="rgb(83.332825%, 55.677795%, 20.619202%)" offset="0.726562"/><stop stop-opacity="1" stop-color="rgb(82.650757%, 54.489136%, 19.648743%)" offset="0.730469"/><stop stop-opacity="1" stop-color="rgb(81.968689%, 53.302002%, 18.67981%)" offset="0.734375"/><stop stop-opacity="1" stop-color="rgb(81.285095%, 52.113342%, 17.709351%)" offset="0.738281"/><stop stop-opacity="1" stop-color="rgb(80.603027%, 50.924683%, 16.740417%)" offset="0.742188"/><stop stop-opacity="1" stop-color="rgb(79.919434%, 49.736023%, 15.769958%)" offset="0.746094"/><stop stop-opacity="1" stop-color="rgb(79.237366%, 48.547363%, 14.801025%)" offset="0.75"/><stop stop-opacity="1" stop-color="rgb(78.555298%, 47.358704%, 13.830566%)" offset="0.753906"/><stop stop-opacity="1" stop-color="rgb(77.87323%, 46.170044%, 12.860107%)" offset="0.757812"/><stop stop-opacity="1" stop-color="rgb(77.189636%, 44.981384%, 11.889648%)" offset="0.761719"/><stop stop-opacity="1" stop-color="rgb(76.507568%, 43.792725%, 10.920715%)" offset="0.765625"/><stop stop-opacity="1" stop-color="rgb(75.823975%, 42.604065%, 9.950256%)" offset="0.769531"/><stop stop-opacity="1" stop-color="rgb(75.141907%, 41.415405%, 8.981323%)" offset="0.773438"/><stop stop-opacity="1" stop-color="rgb(74.757385%, 40.745544%, 8.433533%)" offset="0.777344"/><stop stop-opacity="1" stop-color="rgb(74.372864%, 40.075684%, 7.887268%)" offset="0.78125"/><stop stop-opacity="1" stop-color="rgb(74.952698%, 41.085815%, 8.711243%)" offset="0.785156"/><stop stop-opacity="1" stop-color="rgb(75.532532%, 42.095947%, 9.536743%)" offset="0.789062"/><stop stop-opacity="1" stop-color="rgb(76.112366%, 43.106079%, 10.360718%)" offset="0.792969"/><stop stop-opacity="1" stop-color="rgb(76.693726%, 44.116211%, 11.184692%)" offset="0.796875"/><stop stop-opacity="1" stop-color="rgb(77.27356%, 45.126343%, 12.008667%)" offset="0.800781"/><stop stop-opacity="1" stop-color="rgb(77.853394%, 46.138%, 12.834167%)" offset="0.804687"/><stop stop-opacity="1" stop-color="rgb(78.433228%, 47.148132%, 13.658142%)" offset="0.808594"/><stop stop-opacity="1" stop-color="rgb(79.014587%, 48.158264%, 14.482117%)" offset="0.8125"/><stop stop-opacity="1" stop-color="rgb(79.594421%, 49.168396%, 15.306091%)" offset="0.816406"/><stop stop-opacity="1" stop-color="rgb(80.174255%, 50.178528%, 16.131592%)" offset="0.820312"/><stop stop-opacity="1" stop-color="rgb(80.754089%, 51.18866%, 16.955566%)" offset="0.824219"/><stop stop-opacity="1" stop-color="rgb(81.335449%, 52.198792%, 17.779541%)" offset="0.828125"/><stop stop-opacity="1" stop-color="rgb(81.915283%, 53.208923%, 18.603516%)" offset="0.832031"/><stop stop-opacity="1" stop-color="rgb(82.495117%, 54.219055%, 19.429016%)" offset="0.835938"/><stop stop-opacity="1" stop-color="rgb(83.074951%, 55.229187%, 20.252991%)" offset="0.839844"/><stop stop-opacity="1" stop-color="rgb(83.656311%, 56.240845%, 21.076965%)" offset="0.84375"/><stop stop-opacity="1" stop-color="rgb(84.236145%, 57.250977%, 21.90094%)" offset="0.847656"/><stop stop-opacity="1" stop-color="rgb(84.815979%, 58.261108%, 22.72644%)" offset="0.851562"/><stop stop-opacity="1" stop-color="rgb(85.395813%, 59.27124%, 23.550415%)" offset="0.855469"/><stop stop-opacity="1" stop-color="rgb(85.977173%, 60.281372%, 24.37439%)" offset="0.859375"/><stop stop-opacity="1" stop-color="rgb(86.557007%, 61.291504%, 25.198364%)" offset="0.863281"/><stop stop-opacity="1" stop-color="rgb(87.136841%, 62.301636%, 26.023865%)" offset="0.867188"/><stop stop-opacity="1" stop-color="rgb(87.716675%, 63.311768%, 26.847839%)" offset="0.871094"/><stop stop-opacity="1" stop-color="rgb(88.296509%, 64.321899%, 27.671814%)" offset="0.875"/><stop stop-opacity="1" stop-color="rgb(88.876343%, 65.332031%, 28.495789%)" offset="0.878906"/><stop stop-opacity="1" stop-color="rgb(89.457703%, 66.342163%, 29.321289%)" offset="0.882812"/><stop stop-opacity="1" stop-color="rgb(90.037537%, 67.352295%, 30.145264%)" offset="0.886719"/><stop stop-opacity="1" stop-color="rgb(90.617371%, 68.363953%, 30.969238%)" offset="0.890625"/><stop stop-opacity="1" stop-color="rgb(91.197205%, 69.374084%, 31.793213%)" offset="0.894531"/><stop stop-opacity="1" stop-color="rgb(91.778564%, 70.384216%, 32.618713%)" offset="0.898438"/><stop stop-opacity="1" stop-color="rgb(92.358398%, 71.394348%, 33.442688%)" offset="0.902344"/><stop stop-opacity="1" stop-color="rgb(92.938232%, 72.40448%, 34.266663%)" offset="0.90625"/><stop stop-opacity="1" stop-color="rgb(93.518066%, 73.414612%, 35.090637%)" offset="0.910156"/><stop stop-opacity="1" stop-color="rgb(94.099426%, 74.424744%, 35.916138%)" offset="0.914062"/><stop stop-opacity="1" stop-color="rgb(94.67926%, 75.434875%, 36.740112%)" offset="0.917969"/><stop stop-opacity="1" stop-color="rgb(95.259094%, 76.445007%, 37.564087%)" offset="0.921875"/><stop stop-opacity="1" stop-color="rgb(95.838928%, 77.455139%, 38.388062%)" offset="0.925781"/><stop stop-opacity="1" stop-color="rgb(96.420288%, 78.466797%, 39.213562%)" offset="0.929688"/><stop stop-opacity="1" stop-color="rgb(97.000122%, 79.476929%, 40.037537%)" offset="0.933594"/><stop stop-opacity="1" stop-color="rgb(97.579956%, 80.487061%, 40.861511%)" offset="0.9375"/><stop stop-opacity="1" stop-color="rgb(98.15979%, 81.497192%, 41.685486%)" offset="0.941406"/><stop stop-opacity="1" stop-color="rgb(98.74115%, 82.507324%, 42.510986%)" offset="0.945313"/><stop stop-opacity="1" stop-color="rgb(99.320984%, 83.517456%, 43.334961%)" offset="0.949219"/><stop stop-opacity="1" stop-color="rgb(99.900818%, 84.527588%, 44.158936%)" offset="0.953125"/><stop stop-opacity="1" stop-color="rgb(99.949646%, 84.613037%, 44.229126%)" offset="0.96875"/><stop stop-opacity="1" stop-color="rgb(100%, 84.698486%, 44.299316%)" offset="1"/></linearGradient><clipPath id="d4138dbae0"><path d="M 51 32.46875 L 64.355469 32.46875 L 64.355469 40 L 51 40 Z M 51 32.46875 " clip-rule="nonzero"/></clipPath><clipPath id="269e24fa4a"><path d="M 50.953125 32.46875 L 64.351562 32.46875 L 64.351562 39.980469 L 50.953125 39.980469 Z M 50.953125 32.46875 " clip-rule="nonzero"/></clipPath><clipPath id="99a6483441"><path d="M 53.878906 40.113281 L 61.429688 40.113281 L 61.429688 40.410156 L 53.878906 40.410156 Z M 53.878906 40.113281 " clip-rule="nonzero"/></clipPath><clipPath id="944caa118e"><path d="M 80 102.679688 L 108.632812 102.679688 L 108.632812 119.773438 L 80 119.773438 Z M 80 102.679688 " clip-rule="nonzero"/></clipPath><clipPath id="30756a001d"><path d="M 84.46875 115.183594 C 85.890625 116.421875 85.941406 116.242188 86.039062 116.011719 C 86.289062 115.382812 86.550781 113.566406 86.683594 112.242188 C 86.832031 110.773438 86.652344 108.246094 86.832031 107.566406 C 86.882812 107.351562 86.933594 107.253906 87.03125 107.171875 C 87.148438 107.105469 87.34375 107.089844 87.476562 107.121094 C 87.578125 107.15625 87.609375 107.203125 87.726562 107.351562 C 88.238281 108.03125 90.152344 112.65625 91.046875 114.144531 C 91.507812 114.917969 92.121094 115.449219 92.253906 115.84375 C 92.316406 116.027344 92.335938 116.160156 92.285156 116.273438 C 92.203125 116.40625 91.988281 116.570312 91.824219 116.539062 C 91.589844 116.503906 91.34375 116.125 91.046875 115.730469 C 90.46875 114.984375 89.507812 112.886719 88.847656 112.175781 C 88.484375 111.78125 88.238281 111.566406 87.808594 111.417969 C 87.296875 111.21875 86.421875 111.25 85.890625 111.285156 C 85.511719 111.300781 85.28125 111.351562 84.949219 111.464844 C 84.554688 111.597656 84.058594 111.847656 83.710938 112.09375 C 83.378906 112.324219 83.117188 112.539062 82.882812 112.835938 C 82.652344 113.167969 82.472656 113.582031 82.371094 113.996094 C 82.257812 114.457031 81.976562 115.21875 82.257812 115.515625 C 82.6875 115.976562 84.917969 115.730469 85.777344 115.515625 C 86.304688 115.382812 86.4375 115.234375 87 114.851562 C 88.46875 113.863281 92.765625 109.847656 94.484375 108.527344 C 95.339844 107.882812 95.984375 107.269531 96.464844 107.15625 C 96.714844 107.089844 96.945312 107.105469 97.042969 107.203125 C 97.140625 107.285156 97.175781 107.519531 97.140625 107.648438 C 97.109375 107.78125 97.027344 107.832031 96.878906 107.980469 C 96.234375 108.625 92.746094 111.203125 91.65625 112.210938 C 91.113281 112.722656 90.882812 113.101562 90.515625 113.417969 C 90.21875 113.664062 89.890625 113.996094 89.660156 113.976562 C 89.476562 113.976562 89.246094 113.746094 89.210938 113.597656 C 89.179688 113.480469 89.246094 113.300781 89.34375 113.203125 C 89.476562 113.085938 89.722656 113.050781 90.023438 113.003906 C 90.515625 112.886719 91.328125 112.707031 92.085938 112.722656 C 93.046875 112.722656 94.433594 113.167969 95.308594 113.21875 C 95.917969 113.25 96.347656 113.25 96.84375 113.136719 C 97.355469 113.003906 97.917969 112.773438 98.363281 112.425781 C 98.878906 112.042969 99.503906 111.25 99.6875 110.90625 C 99.769531 110.738281 99.835938 110.542969 99.785156 110.492188 C 99.71875 110.441406 99.4375 110.722656 99.175781 110.789062 C 98.792969 110.90625 98.085938 110.820312 97.65625 110.972656 C 97.324219 111.085938 96.960938 111.285156 96.8125 111.484375 C 96.714844 111.617188 96.628906 111.765625 96.695312 111.929688 C 96.894531 112.359375 98.992188 113.003906 99.605469 113.5 C 99.96875 113.78125 100.199219 114.058594 100.347656 114.308594 C 100.429688 114.472656 100.480469 114.605469 100.480469 114.769531 C 100.496094 114.96875 100.429688 115.234375 100.332031 115.433594 C 100.230469 115.644531 100.101562 115.796875 99.867188 115.992188 C 99.472656 116.339844 98.792969 116.835938 98.101562 117.199219 C 97.273438 117.628906 96.265625 117.992188 95.160156 118.324219 C 93.820312 118.71875 92.003906 119.050781 90.566406 119.28125 C 89.3125 119.480469 88.136719 119.59375 87 119.675781 C 85.957031 119.742188 85.046875 119.777344 84.039062 119.742188 C 82.949219 119.710938 81.296875 119.777344 80.652344 119.445312 C 80.324219 119.265625 80.140625 119 80.058594 118.703125 C 79.960938 118.390625 80.058594 117.894531 80.140625 117.613281 C 80.207031 117.398438 80.273438 117.296875 80.421875 117.132812 C 80.671875 116.820312 81.050781 116.472656 81.628906 116.09375 C 82.6875 115.398438 84.703125 114.441406 86.550781 113.632812 C 88.800781 112.640625 92.121094 111.597656 94.183594 110.738281 C 95.640625 110.144531 96.546875 109.730469 97.835938 109.085938 C 99.324219 108.359375 100.976562 107.550781 102.578125 106.558594 C 104.347656 105.46875 107.121094 102.890625 107.996094 102.726562 C 108.246094 102.675781 108.425781 102.726562 108.507812 102.84375 C 108.589844 102.941406 108.609375 103.238281 108.527344 103.371094 C 108.476562 103.46875 108.292969 103.554688 108.179688 103.554688 C 108.046875 103.554688 107.882812 103.453125 107.816406 103.355469 C 107.75 103.253906 107.714844 103.058594 107.765625 102.957031 C 107.832031 102.824219 108.078125 102.675781 108.226562 102.695312 C 108.359375 102.710938 108.558594 102.925781 108.609375 103.058594 C 108.640625 103.140625 108.609375 103.222656 108.558594 103.320312 C 108.441406 103.519531 108.179688 103.734375 107.796875 104.046875 C 106.808594 104.824219 104.097656 106.609375 102.148438 107.734375 C 100.214844 108.839844 98.464844 109.730469 96.183594 110.738281 C 93.292969 112.011719 88.734375 113.433594 86.15625 114.621094 C 84.46875 115.398438 82.949219 116.242188 82.089844 116.820312 C 81.644531 117.117188 81.363281 117.265625 81.167969 117.578125 C 80.96875 117.875 80.738281 118.390625 80.902344 118.636719 C 81.117188 118.949219 82.175781 118.902344 82.933594 118.949219 C 83.828125 119.015625 84.785156 118.96875 85.925781 118.902344 C 87.429688 118.820312 89.492188 118.636719 91.113281 118.355469 C 92.582031 118.125 94.054688 117.792969 95.242188 117.414062 C 96.167969 117.132812 97.027344 116.769531 97.671875 116.441406 C 98.132812 116.207031 98.464844 115.992188 98.792969 115.730469 C 99.109375 115.464844 99.621094 115.152344 99.636719 114.871094 C 99.636719 114.605469 99.324219 114.375 99.007812 114.125 C 98.429688 113.679688 96.679688 113.136719 96.21875 112.773438 C 96.035156 112.625 95.953125 112.539062 95.886719 112.359375 C 95.804688 112.128906 95.769531 111.699219 95.855469 111.417969 C 95.9375 111.152344 96.132812 110.921875 96.332031 110.722656 C 96.5625 110.507812 96.84375 110.34375 97.160156 110.226562 C 97.507812 110.078125 97.886719 110.011719 98.316406 109.964844 C 98.878906 109.898438 99.867188 109.8125 100.230469 109.964844 C 100.429688 110.046875 100.546875 110.195312 100.613281 110.34375 C 100.660156 110.476562 100.660156 110.640625 100.613281 110.839844 C 100.511719 111.121094 100.230469 111.550781 99.949219 111.894531 C 99.636719 112.292969 99.242188 112.753906 98.777344 113.085938 C 98.265625 113.449219 97.554688 113.78125 96.976562 113.945312 C 96.5 114.078125 96.152344 114.09375 95.589844 114.078125 C 94.699219 114.058594 93.195312 113.566406 92.136719 113.582031 C 91.246094 113.582031 90.136719 114.109375 89.660156 113.976562 C 89.425781 113.910156 89.246094 113.746094 89.210938 113.597656 C 89.179688 113.480469 89.246094 113.367188 89.34375 113.203125 C 89.609375 112.820312 90.386719 112.195312 91.128906 111.550781 C 92.300781 110.542969 94.910156 108.394531 95.789062 107.832031 C 96.085938 107.648438 96.25 107.484375 96.449219 107.5 C 96.597656 107.519531 96.863281 107.683594 96.863281 107.832031 C 96.84375 108.246094 95.042969 109.085938 93.871094 110.011719 C 92.070312 111.449219 88.78125 114.804688 87.195312 115.761719 C 86.453125 116.207031 86.054688 116.324219 85.394531 116.457031 C 84.652344 116.605469 83.644531 116.570312 82.96875 116.523438 C 82.4375 116.472656 81.875 116.441406 81.628906 116.273438 C 81.464844 116.160156 81.414062 116.042969 81.363281 115.859375 C 81.265625 115.53125 81.296875 114.886719 81.363281 114.40625 C 81.445312 113.929688 81.644531 113.398438 81.828125 112.953125 C 82.007812 112.574219 82.207031 112.210938 82.453125 111.945312 C 82.6875 111.699219 82.933594 111.550781 83.246094 111.351562 C 83.628906 111.101562 84.125 110.773438 84.585938 110.609375 C 85.015625 110.457031 85.394531 110.375 85.890625 110.34375 C 86.519531 110.308594 87.476562 110.328125 88.105469 110.542969 C 88.617188 110.707031 88.929688 110.921875 89.394531 111.382812 C 90.253906 112.257812 92.019531 115.117188 92.253906 115.84375 C 92.316406 116.042969 92.335938 116.160156 92.285156 116.273438 C 92.203125 116.40625 91.988281 116.539062 91.824219 116.539062 C 91.640625 116.539062 91.441406 116.390625 91.246094 116.191406 C 90.914062 115.859375 90.667969 115.265625 90.253906 114.523438 C 89.492188 113.136719 87.527344 109.566406 87.082031 108.441406 C 86.914062 108.03125 86.816406 107.796875 86.832031 107.566406 C 86.851562 107.402344 86.933594 107.238281 87.03125 107.171875 C 87.164062 107.105469 87.445312 107.089844 87.578125 107.171875 C 87.691406 107.253906 87.726562 107.402344 87.773438 107.648438 C 87.90625 108.378906 87.742188 110.691406 87.59375 112.144531 C 87.445312 113.546875 87.230469 115.449219 86.898438 116.242188 C 86.734375 116.621094 86.570312 116.820312 86.355469 117 C 86.1875 117.167969 85.992188 117.296875 85.808594 117.332031 C 85.660156 117.363281 85.527344 117.347656 85.347656 117.234375 C 84.949219 117.019531 83.890625 116.058594 83.777344 115.644531 C 83.726562 115.433594 83.808594 115.183594 83.925781 115.101562 C 84.039062 115.019531 84.46875 115.183594 84.46875 115.183594 " clip-rule="nonzero"/></clipPath></defs><g clip-path="url(#c703cf3c9e)"><g clip-path="url(#7e742bca8a)"><g clip-path="url(#1d79ce02da)"><g clip-path="url(#79c9333f1a)"><g clip-path="url(#67082b458b)"><path fill="url(#02ff8812b9)" d="M 111.363281 -53.257812 L -48.75 28.160156 L 33.710938 190.328125 L 193.824219 108.910156 Z M 111.363281 -53.257812 " fill-rule="nonzero"/></g></g></g></g></g><g fill="#f8d26b" fill-opacity="1"><g transform="translate(26.355091, 38.068814)"><g><path d="M -0.71875 -2.625 L 1 -1.171875 L 0.28125 -0.328125 L -3.546875 -3.59375 L -2.828125 -4.4375 L -1.125 -2.96875 L -1.796875 -5.65625 L -0.875 -6.734375 L -0.21875 -3.625 L 3 -3.53125 L 2.03125 -2.390625 Z M -0.71875 -2.625 "/></g></g></g><g fill="#f8d26b" fill-opacity="1"><g transform="translate(33.223233, 30.781652)"><g><path d="M -0.5 -6.046875 L 0.359375 -6.734375 L 2.28125 -4.328125 C 2.695312 -3.804688 2.867188 -3.296875 2.796875 -2.796875 C 2.734375 -2.296875 2.441406 -1.84375 1.921875 -1.4375 C 1.410156 -1.03125 0.90625 -0.847656 0.40625 -0.890625 C -0.09375 -0.929688 -0.550781 -1.210938 -0.96875 -1.734375 L -2.890625 -4.140625 L -2.015625 -4.828125 L -0.203125 -2.546875 C 0.015625 -2.285156 0.234375 -2.125 0.453125 -2.0625 C 0.679688 -2 0.941406 -2.082031 1.234375 -2.3125 C 1.535156 -2.550781 1.675781 -2.785156 1.65625 -3.015625 C 1.644531 -3.253906 1.53125 -3.503906 1.3125 -3.765625 Z M -0.5 -6.046875 "/></g></g></g><g fill="#f8d26b" fill-opacity="1"><g transform="translate(41.572556, 24.813178)"><g><path d="M 3.90625 -2.015625 L 2.921875 -1.5 L -0.0625 -3.5 L 1.375 -0.703125 L 0.390625 -0.203125 L -1.921875 -4.671875 L -0.9375 -5.171875 L 2.046875 -3.1875 L 0.609375 -5.96875 L 1.59375 -6.484375 Z M 3.90625 -2.015625 "/></g></g></g><g fill="#f8d26b" fill-opacity="1"><g transform="translate(50.941505, 20.582568)"><g><path d="M 1.1875 -1.390625 L 1.515625 -1.484375 C 1.785156 -1.566406 2.003906 -1.703125 2.171875 -1.890625 C 2.347656 -2.078125 2.460938 -2.296875 2.515625 -2.546875 C 2.566406 -2.804688 2.550781 -3.070312 2.46875 -3.34375 C 2.394531 -3.613281 2.269531 -3.835938 2.09375 -4.015625 C 1.914062 -4.191406 1.703125 -4.3125 1.453125 -4.375 C 1.210938 -4.445312 0.957031 -4.441406 0.6875 -4.359375 L 0.359375 -4.265625 Z M -0.96875 -4.953125 L 0.46875 -5.359375 C 0.8125 -5.460938 1.140625 -5.492188 1.453125 -5.453125 C 1.773438 -5.410156 2.078125 -5.3125 2.359375 -5.15625 C 2.648438 -5.007812 2.898438 -4.804688 3.109375 -4.546875 C 3.316406 -4.285156 3.46875 -3.988281 3.5625 -3.65625 C 3.664062 -3.3125 3.695312 -2.972656 3.65625 -2.640625 C 3.625 -2.304688 3.53125 -2 3.375 -1.71875 C 3.21875 -1.445312 3.007812 -1.207031 2.75 -1 C 2.5 -0.789062 2.203125 -0.632812 1.859375 -0.53125 L 0.421875 -0.125 Z M -0.96875 -4.953125 "/></g></g></g><g fill="#f8d26b" fill-opacity="1"><g transform="translate(60.809149, 18.265001)"><g><path d="M 3 -2.1875 L 2.21875 -3.90625 L 1.75 -2.078125 Z M 5.046875 -0.421875 L 3.84375 -0.328125 L 3.40625 -1.3125 L 1.515625 -1.15625 L 1.234375 -0.109375 L 0.03125 0 L 1.65625 -5.1875 L 2.578125 -5.265625 Z M 5.046875 -0.421875 "/></g></g></g><g fill="#f8d26b" fill-opacity="1"><g transform="translate(71.334168, 17.928633)"><g><path d="M 4.359375 0.5 L 3.265625 0.375 L 1.890625 -2.953125 L 1.53125 0.171875 L 0.4375 0.046875 L 1.015625 -4.953125 L 2.109375 -4.828125 L 3.484375 -1.5 L 3.84375 -4.625 L 4.9375 -4.5 Z M 4.359375 0.5 "/></g></g></g><g fill="#f8d26b" fill-opacity="1"><g transform="translate(81.52002, 19.690989)"><g/></g></g><g fill="#f8d26b" fill-opacity="1"><g transform="translate(88.484255, 22.063051)"><g><path d="M 3.6875 -0.34375 L 3.90625 -2.203125 L 2.5625 -0.890625 Z M 4.546875 2.21875 L 3.46875 1.6875 L 3.59375 0.625 L 1.890625 -0.203125 L 1.109375 0.546875 L 0.03125 0.015625 L 4.078125 -3.609375 L 4.90625 -3.1875 Z M 4.546875 2.21875 "/></g></g></g><g fill="#f8d26b" fill-opacity="1"><g transform="translate(97.690645, 27.174706)"><g><path d="M 3.484375 2.671875 L 2.609375 2 L 3.140625 -1.5625 L 1.234375 0.9375 L 0.34375 0.265625 L 3.40625 -3.734375 L 4.296875 -3.0625 L 3.765625 0.5 L 5.671875 -2 L 6.546875 -1.328125 Z M 3.484375 2.671875 "/></g></g></g><g fill="#f8d26b" fill-opacity="1"><g transform="translate(105.519104, 33.85716)"><g><path d="M 4.71875 -0.75 L 1.71875 1.921875 L 0.984375 1.09375 L 3.984375 -1.578125 L 3.015625 -2.65625 L 3.765625 -3.328125 L 6.421875 -0.34375 L 5.671875 0.328125 Z M 4.71875 -0.75 "/></g></g></g><g fill="#f8d26b" fill-opacity="1"><g transform="translate(111.490825, 41.259907)"><g><path d="M 0.984375 1.65625 L 3.046875 0.421875 L 4.34375 -2.53125 L 5.015625 -1.390625 L 4.078125 0.4375 L 6.140625 0.484375 L 6.8125 1.609375 L 3.609375 1.359375 L 1.546875 2.59375 Z M 0.984375 1.65625 "/></g></g></g><g fill="#f8d26b" fill-opacity="1"><g transform="translate(116.348726, 50.426356)"><g><path d="M 2.875 2.34375 L 4.328125 1.171875 L 2.453125 1.15625 Z M 1.6875 4.78125 L 1.28125 3.640625 L 2.125 2.953125 L 1.484375 1.15625 L 0.40625 1.15625 L 0.015625 0.03125 L 5.4375 0.28125 L 5.75 1.171875 Z M 1.6875 4.78125 "/></g></g></g><g fill="#f8d26b" fill-opacity="1"><g transform="translate(119.325593, 60.531916)"><g><path d="M 2.453125 1.203125 L 0.21875 1.53125 L 0.0625 0.4375 L 5.046875 -0.28125 L 5.203125 0.8125 L 2.96875 1.140625 L 5.4375 2.390625 L 5.640625 3.796875 L 2.859375 2.234375 L 0.65625 4.59375 L 0.453125 3.109375 Z M 2.453125 1.203125 "/></g></g></g><g fill="#f8d26b" fill-opacity="1"><g transform="translate(120.242511, 70.50223)"><g><path d="M 4.859375 3.625 L 4.8125 4.734375 L 1.734375 4.578125 C 1.066406 4.546875 0.566406 4.335938 0.234375 3.953125 C -0.0859375 3.578125 -0.234375 3.0625 -0.203125 2.40625 C -0.171875 1.75 0.0234375 1.242188 0.390625 0.890625 C 0.753906 0.546875 1.269531 0.390625 1.9375 0.421875 L 5.015625 0.578125 L 4.953125 1.6875 L 2.046875 1.546875 C 1.703125 1.523438 1.429688 1.578125 1.234375 1.703125 C 1.035156 1.828125 0.925781 2.078125 0.90625 2.453125 C 0.882812 2.835938 0.96875 3.097656 1.15625 3.234375 C 1.34375 3.378906 1.609375 3.460938 1.953125 3.484375 Z M 4.859375 3.625 "/></g></g></g><g fill="#f8d26b" fill-opacity="1"><g transform="translate(119.169111, 80.73193)"><g><path d="M -0.109375 0.421875 L 4.78125 1.59375 L 4.53125 2.671875 L 0.609375 1.734375 L 0.1875 3.5 L -0.78125 3.265625 Z M -0.109375 0.421875 "/></g></g></g><g fill="#f8d26b" fill-opacity="1"><g transform="translate(116.624727, 89.451328)"><g><path d="M 0.453125 3.671875 L 2.328125 3.84375 L 0.96875 2.515625 Z M -2.078125 4.625 L -1.578125 3.515625 L -0.515625 3.609375 L 0.265625 1.875 L -0.5 1.125 L -0.015625 0.03125 L 3.734375 3.953125 L 3.359375 4.8125 Z M -2.078125 4.625 "/></g></g></g><g fill="#efc75e" fill-opacity="1"><g transform="translate(50.941853, 71.883408)"><g><path d="M 25.96875 -1.703125 C 25.6875 -1.097656 25.269531 -0.660156 24.71875 -0.390625 C 24.164062 -0.128906 23.582031 0 22.96875 0 C 21.9375 0 21.101562 -0.238281 20.46875 -0.71875 C 19.832031 -1.207031 19.316406 -1.828125 18.921875 -2.578125 C 18.421875 -3.492188 17.984375 -4.519531 17.609375 -5.65625 C 17.234375 -6.800781 16.894531 -7.941406 16.59375 -9.078125 C 16.289062 -10.222656 15.957031 -11.269531 15.59375 -12.21875 C 14.925781 -14.101562 13.988281 -15.066406 12.78125 -15.109375 C 11.570312 -15.148438 10.242188 -14.476562 8.796875 -13.09375 C 8.378906 -12.675781 7.988281 -12.238281 7.625 -11.78125 C 7.269531 -11.320312 6.9375 -10.882812 6.625 -10.46875 L 6.625 -5.875 C 6.625 -3.675781 6.847656 -2.203125 7.296875 -1.453125 C 7.742188 -0.703125 8.410156 -0.34375 9.296875 -0.375 L 9.296875 0 L 0 0 L 0 -0.375 C 0.882812 -0.34375 1.550781 -0.703125 2 -1.453125 C 2.445312 -2.203125 2.671875 -3.675781 2.671875 -5.875 L 2.671875 -22.59375 C 2.671875 -24.8125 2.445312 -26.300781 2 -27.0625 C 1.550781 -27.832031 0.882812 -28.191406 0 -28.140625 L 0 -28.515625 L 9.296875 -28.515625 L 9.296875 -28.140625 C 8.410156 -28.191406 7.742188 -27.832031 7.296875 -27.0625 C 6.847656 -26.300781 6.625 -24.8125 6.625 -22.59375 L 6.625 -11.796875 C 7.15625 -12.492188 7.675781 -13.117188 8.1875 -13.671875 C 8.707031 -14.222656 9.257812 -14.804688 9.84375 -15.421875 L 19.015625 -25.21875 C 19.265625 -25.5 19.457031 -25.773438 19.59375 -26.046875 C 19.726562 -26.328125 19.710938 -26.648438 19.546875 -27.015625 C 19.492188 -27.179688 19.453125 -27.28125 19.421875 -27.3125 C 19.203125 -27.75 18.925781 -28.003906 18.59375 -28.078125 C 18.257812 -28.148438 17.816406 -28.171875 17.265625 -28.140625 L 17.265625 -28.515625 L 24.21875 -28.515625 L 24.21875 -28.140625 C 23.582031 -28.171875 23.101562 -28.0625 22.78125 -27.8125 C 22.457031 -27.5625 22.101562 -27.238281 21.71875 -26.84375 C 21.382812 -26.507812 21.050781 -26.175781 20.71875 -25.84375 C 20.382812 -25.507812 20.050781 -25.175781 19.71875 -24.84375 L 11.921875 -16.515625 C 12.304688 -16.648438 12.691406 -16.765625 13.078125 -16.859375 C 13.472656 -16.960938 13.894531 -17.015625 14.34375 -17.015625 C 15.789062 -17.015625 16.890625 -16.601562 17.640625 -15.78125 C 18.390625 -14.957031 18.941406 -13.988281 19.296875 -12.875 C 19.492188 -12.289062 19.742188 -11.503906 20.046875 -10.515625 C 20.359375 -9.535156 20.691406 -8.503906 21.046875 -7.421875 C 21.410156 -6.335938 21.785156 -5.34375 22.171875 -4.4375 C 22.566406 -3.53125 22.941406 -2.867188 23.296875 -2.453125 C 23.609375 -2.117188 23.976562 -1.863281 24.40625 -1.6875 C 24.832031 -1.507812 25.253906 -1.597656 25.671875 -1.953125 Z M 25.96875 -1.703125 "/></g></g></g><g fill="#efc75e" fill-opacity="1"><g transform="translate(62.376672, 89.268758)"><g><path d="M 16.015625 -28.515625 L 25.171875 -2.328125 C 25.398438 -1.691406 25.707031 -1.191406 26.09375 -0.828125 C 26.488281 -0.472656 27.0625 -0.304688 27.8125 -0.328125 L 27.8125 0 L 19.390625 0 L 19.390625 -0.328125 C 20.109375 -0.304688 20.613281 -0.460938 20.90625 -0.796875 C 21.195312 -1.128906 21.234375 -1.640625 21.015625 -2.328125 L 18.171875 -10.375 C 17.453125 -8.851562 16.492188 -7.90625 15.296875 -7.53125 C 14.097656 -7.15625 12.664062 -7.226562 11 -7.75 C 10.582031 -7.894531 10.085938 -8.0625 9.515625 -8.25 C 8.953125 -8.445312 8.367188 -8.578125 7.765625 -8.640625 C 7.171875 -8.710938 6.628906 -8.644531 6.140625 -8.4375 C 5.660156 -8.226562 5.304688 -7.789062 5.078125 -7.125 L 4.203125 -4.796875 C 4.097656 -4.429688 4.046875 -4.085938 4.046875 -3.765625 C 4.046875 -3.453125 4.097656 -3.113281 4.203125 -2.75 C 4.265625 -2.613281 4.320312 -2.460938 4.375 -2.296875 C 4.425781 -2.128906 4.46875 -1.972656 4.5 -1.828125 C 4.71875 -1.222656 5.03125 -0.816406 5.4375 -0.609375 C 5.84375 -0.398438 6.378906 -0.304688 7.046875 -0.328125 L 7.046875 0 C 6.015625 0 4.820312 0 3.46875 0 C 2.125 0 0.96875 0 0 0 L 0 -0.328125 C 0.664062 -0.304688 1.207031 -0.460938 1.625 -0.796875 C 2.039062 -1.128906 2.347656 -1.585938 2.546875 -2.171875 L 11.796875 -28.515625 Z M 17.921875 -11.21875 L 12.21875 -27.4375 L 6.046875 -9.96875 C 6.765625 -10.90625 7.648438 -11.460938 8.703125 -11.640625 C 9.765625 -11.828125 10.976562 -11.6875 12.34375 -11.21875 C 12.976562 -11.019531 13.628906 -10.804688 14.296875 -10.578125 C 14.960938 -10.359375 15.609375 -10.269531 16.234375 -10.3125 C 16.859375 -10.351562 17.421875 -10.65625 17.921875 -11.21875 Z M 17.921875 -11.21875 "/></g></g></g><g clip-path="url(#d4138dbae0)"><path fill="#f7be23" d="M 63.824219 34.402344 C 63.613281 34.402344 63.441406 34.574219 63.441406 34.785156 C 63.441406 34.910156 63.5 35.019531 63.59375 35.089844 C 63.394531 35.242188 63.144531 35.4375 62.894531 35.644531 C 61.902344 36.460938 61.675781 36.808594 61.632812 36.945312 L 61.519531 37.277344 L 61.417969 36.941406 C 61.40625 36.910156 61.226562 36.308594 61.269531 35.746094 C 61.332031 35.785156 61.40625 35.808594 61.484375 35.808594 C 61.695312 35.808594 61.867188 35.636719 61.867188 35.425781 C 61.867188 35.214844 61.695312 35.042969 61.484375 35.042969 C 61.273438 35.042969 61.101562 35.214844 61.101562 35.425781 C 61.101562 35.554688 61.164062 35.671875 61.261719 35.738281 L 60.785156 36.351562 L 60.695312 36.277344 C 60.6875 36.269531 60.496094 36.105469 60.324219 35.855469 C 60.304688 35.828125 60.285156 35.800781 60.269531 35.773438 C 60.398438 35.710938 60.488281 35.578125 60.488281 35.425781 C 60.488281 35.214844 60.316406 35.042969 60.105469 35.042969 C 59.894531 35.042969 59.722656 35.214844 59.722656 35.425781 C 59.722656 35.59375 59.828125 35.734375 59.976562 35.789062 C 59.953125 35.851562 59.929688 35.917969 59.910156 35.984375 C 59.582031 36.933594 59.535156 37.222656 59.535156 37.308594 L 59.535156 37.621094 L 59.335938 37.378906 C 59.316406 37.359375 58.882812 36.832031 58.453125 36.0625 C 58.199219 35.609375 58 35.167969 57.859375 34.746094 C 57.839844 34.6875 57.824219 34.628906 57.804688 34.570312 C 57.851562 34.484375 57.894531 34.402344 57.929688 34.324219 C 58.480469 33.816406 59.402344 33.78125 59.402344 33.78125 C 58.972656 33.378906 58.46875 33.523438 58.132812 33.707031 C 58.273438 32.871094 57.679688 32.625 57.679688 32.625 C 57.679688 32.625 57.082031 32.871094 57.222656 33.707031 C 56.890625 33.523438 56.382812 33.378906 55.953125 33.78125 C 55.953125 33.78125 56.875 33.816406 57.425781 34.324219 C 57.464844 34.402344 57.503906 34.484375 57.550781 34.570312 C 57.535156 34.628906 57.515625 34.6875 57.496094 34.746094 C 57.359375 35.167969 57.160156 35.609375 56.90625 36.0625 C 56.476562 36.832031 56.039062 37.359375 56.023438 37.378906 L 55.824219 37.621094 L 55.824219 37.308594 C 55.824219 37.222656 55.773438 36.933594 55.449219 35.984375 C 55.394531 35.828125 55.34375 35.679688 55.292969 35.542969 C 55.464844 35.503906 55.59375 35.351562 55.59375 35.167969 C 55.59375 34.957031 55.421875 34.785156 55.210938 34.785156 C 54.996094 34.785156 54.828125 34.957031 54.828125 35.167969 C 54.828125 35.378906 54.996094 35.550781 55.203125 35.550781 C 55.160156 35.652344 55.105469 35.753906 55.035156 35.855469 C 54.863281 36.105469 54.667969 36.269531 54.660156 36.277344 L 54.570312 36.351562 L 54.210938 35.886719 C 54.328125 35.820312 54.40625 35.695312 54.40625 35.550781 C 54.40625 35.339844 54.234375 35.167969 54.023438 35.167969 C 53.8125 35.167969 53.640625 35.339844 53.640625 35.550781 C 53.640625 35.765625 53.8125 35.9375 54.023438 35.9375 C 54.046875 35.9375 54.070312 35.933594 54.09375 35.929688 C 54.09375 36.433594 53.949219 36.914062 53.9375 36.941406 L 53.835938 37.277344 L 53.726562 36.945312 C 53.679688 36.808594 53.457031 36.460938 52.460938 35.640625 C 52.199219 35.425781 51.941406 35.226562 51.738281 35.070312 C 51.8125 35 51.863281 34.898438 51.863281 34.785156 C 51.863281 34.574219 51.691406 34.402344 51.480469 34.402344 C 51.269531 34.402344 51.097656 34.574219 51.097656 34.785156 C 51.097656 34.996094 51.269531 35.167969 51.480469 35.167969 C 51.574219 35.167969 51.664062 35.132812 51.730469 35.074219 L 54.230469 39.832031 L 61.125 39.832031 L 63.613281 35.105469 C 63.671875 35.144531 63.746094 35.167969 63.824219 35.167969 C 64.035156 35.167969 64.207031 34.996094 64.207031 34.785156 C 64.207031 34.574219 64.035156 34.402344 63.824219 34.402344 " fill-opacity="1" fill-rule="nonzero"/></g><g clip-path="url(#269e24fa4a)"><path fill="#f7be23" d="M 56.394531 33.691406 C 56.726562 33.761719 57.1875 33.90625 57.527344 34.21875 L 57.546875 34.238281 L 57.558594 34.265625 C 57.59375 34.339844 57.632812 34.417969 57.679688 34.5 C 57.722656 34.417969 57.761719 34.339844 57.796875 34.265625 L 57.808594 34.238281 L 57.832031 34.21875 C 58.171875 33.90625 58.628906 33.761719 58.964844 33.691406 C 58.742188 33.632812 58.484375 33.679688 58.203125 33.835938 L 57.941406 33.976562 L 57.988281 33.683594 C 58.085938 33.117188 57.804688 32.867188 57.679688 32.789062 C 57.554688 32.867188 57.273438 33.117188 57.367188 33.683594 L 57.417969 33.976562 L 57.15625 33.835938 C 56.871094 33.679688 56.617188 33.632812 56.394531 33.691406 Z M 51.480469 34.546875 C 51.347656 34.546875 51.242188 34.652344 51.242188 34.785156 C 51.242188 34.917969 51.347656 35.023438 51.480469 35.023438 C 51.539062 35.023438 51.59375 35.003906 51.636719 34.964844 L 51.640625 34.960938 C 51.691406 34.917969 51.71875 34.851562 51.71875 34.785156 C 51.71875 34.652344 51.613281 34.546875 51.480469 34.546875 Z M 63.6875 34.980469 L 63.691406 34.984375 C 63.730469 35.007812 63.777344 35.023438 63.824219 35.023438 C 63.957031 35.023438 64.0625 34.917969 64.0625 34.785156 C 64.0625 34.652344 63.957031 34.546875 63.824219 34.546875 C 63.691406 34.546875 63.585938 34.652344 63.585938 34.785156 C 63.585938 34.859375 63.621094 34.929688 63.679688 34.976562 Z M 55.210938 34.929688 C 55.078125 34.929688 54.972656 35.039062 54.972656 35.167969 C 54.972656 35.296875 55.078125 35.40625 55.207031 35.40625 L 55.234375 35.40625 L 55.261719 35.402344 C 55.371094 35.378906 55.449219 35.277344 55.449219 35.167969 C 55.449219 35.039062 55.339844 34.929688 55.210938 34.929688 Z M 61.351562 35.625 C 61.390625 35.652344 61.4375 35.664062 61.484375 35.664062 C 61.613281 35.664062 61.722656 35.558594 61.722656 35.425781 C 61.722656 35.292969 61.613281 35.1875 61.484375 35.1875 C 61.351562 35.1875 61.246094 35.292969 61.246094 35.425781 C 61.246094 35.503906 61.285156 35.578125 61.347656 35.621094 Z M 60.105469 35.1875 C 59.972656 35.1875 59.867188 35.292969 59.867188 35.425781 C 59.867188 35.527344 59.929688 35.617188 60.023438 35.652344 L 60.117188 35.683594 L 60.207031 35.640625 C 60.289062 35.601562 60.34375 35.515625 60.34375 35.425781 C 60.34375 35.292969 60.234375 35.1875 60.105469 35.1875 Z M 54.023438 35.3125 C 53.890625 35.3125 53.785156 35.421875 53.785156 35.550781 C 53.785156 35.683594 53.890625 35.792969 54.023438 35.792969 C 54.035156 35.792969 54.050781 35.789062 54.066406 35.785156 L 54.105469 35.78125 L 54.136719 35.761719 C 54.214844 35.71875 54.261719 35.640625 54.261719 35.550781 C 54.261719 35.421875 54.152344 35.3125 54.023438 35.3125 Z M 54.320312 39.6875 L 61.039062 39.6875 L 63.195312 35.585938 C 63.125 35.644531 63.054688 35.699219 62.988281 35.753906 C 61.957031 36.601562 61.792969 36.914062 61.769531 36.992188 L 61.515625 37.753906 L 61.28125 36.984375 C 61.273438 36.964844 61.160156 36.589844 61.125 36.152344 L 60.808594 36.5625 L 60.601562 36.386719 C 60.582031 36.371094 60.382812 36.199219 60.203125 35.9375 C 60.183594 35.910156 60.164062 35.878906 60.144531 35.847656 L 60.121094 35.8125 L 60.113281 35.835938 C 60.089844 35.902344 60.066406 35.96875 60.046875 36.03125 C 59.707031 37.023438 59.679688 37.257812 59.679688 37.308594 L 59.679688 38.023438 L 59.222656 37.472656 C 59.207031 37.449219 58.761719 36.914062 58.324219 36.132812 C 58.066406 35.671875 57.863281 35.222656 57.722656 34.792969 C 57.707031 34.746094 57.691406 34.699219 57.679688 34.652344 C 57.664062 34.699219 57.648438 34.746094 57.632812 34.792969 C 57.492188 35.222656 57.289062 35.671875 57.03125 36.132812 C 56.59375 36.914062 56.152344 37.449219 56.132812 37.472656 L 55.675781 38.023438 L 55.679688 37.308594 C 55.679688 37.257812 55.652344 37.023438 55.3125 36.03125 C 55.285156 35.960938 55.261719 35.886719 55.234375 35.808594 C 55.210938 35.851562 55.183594 35.894531 55.152344 35.9375 C 54.972656 36.199219 54.777344 36.371094 54.753906 36.386719 L 54.550781 36.5625 L 54.230469 36.152344 C 54.199219 36.578125 54.09375 36.941406 54.078125 36.984375 L 53.839844 37.753906 L 53.589844 36.992188 C 53.5625 36.914062 53.402344 36.601562 52.371094 35.753906 C 52.304688 35.699219 52.234375 35.644531 52.164062 35.585938 Z M 61.210938 39.976562 L 54.144531 39.976562 L 51.671875 35.277344 C 51.613281 35.300781 51.546875 35.3125 51.480469 35.3125 C 51.1875 35.3125 50.953125 35.078125 50.953125 34.785156 C 50.953125 34.492188 51.1875 34.253906 51.480469 34.253906 C 51.773438 34.253906 52.007812 34.492188 52.007812 34.785156 C 52.007812 34.875 51.984375 34.964844 51.941406 35.042969 C 52.160156 35.210938 52.363281 35.375 52.554688 35.53125 C 53.253906 36.105469 53.683594 36.535156 53.824219 36.8125 C 53.863281 36.675781 53.925781 36.386719 53.945312 36.078125 C 53.691406 36.039062 53.496094 35.816406 53.496094 35.550781 C 53.496094 35.261719 53.730469 35.023438 54.023438 35.023438 C 54.3125 35.023438 54.550781 35.261719 54.550781 35.550781 C 54.550781 35.6875 54.5 35.8125 54.410156 35.910156 L 54.59375 36.144531 C 54.648438 36.09375 54.789062 35.957031 54.914062 35.773438 C 54.945312 35.730469 54.96875 35.691406 54.992188 35.652344 C 54.808594 35.566406 54.679688 35.382812 54.679688 35.167969 C 54.679688 34.878906 54.917969 34.640625 55.210938 34.640625 C 55.5 34.640625 55.738281 34.878906 55.738281 35.167969 C 55.738281 35.289062 55.695312 35.40625 55.621094 35.5 C 55.582031 35.550781 55.53125 35.59375 55.476562 35.625 C 55.515625 35.730469 55.550781 35.835938 55.585938 35.9375 C 55.804688 36.578125 55.929688 37.007812 55.960938 37.222656 C 56.089844 37.0625 56.433594 36.605469 56.78125 35.992188 C 57.027344 35.546875 57.222656 35.113281 57.359375 34.703125 C 57.371094 34.664062 57.382812 34.625 57.394531 34.585938 C 57.363281 34.527344 57.335938 34.46875 57.308594 34.414062 C 56.800781 33.964844 55.957031 33.925781 55.949219 33.925781 L 55.601562 33.914062 L 55.855469 33.675781 C 56.078125 33.464844 56.339844 33.367188 56.628906 33.378906 C 56.769531 33.386719 56.910156 33.414062 57.058594 33.472656 C 57.054688 33.132812 57.171875 32.902344 57.285156 32.761719 C 57.433594 32.570312 57.605469 32.496094 57.625 32.488281 L 57.679688 32.46875 L 57.734375 32.488281 C 57.753906 32.496094 57.921875 32.570312 58.070312 32.761719 C 58.183594 32.902344 58.300781 33.132812 58.300781 33.472656 C 58.445312 33.414062 58.589844 33.386719 58.726562 33.378906 C 59.019531 33.367188 59.28125 33.464844 59.5 33.675781 L 59.753906 33.914062 L 59.40625 33.925781 C 59.398438 33.925781 58.554688 33.964844 58.046875 34.414062 C 58.023438 34.46875 57.992188 34.527344 57.960938 34.585938 C 57.972656 34.625 57.984375 34.664062 58 34.703125 C 58.132812 35.113281 58.328125 35.546875 58.578125 35.992188 C 58.921875 36.605469 59.269531 37.0625 59.394531 37.222656 C 59.425781 37.011719 59.550781 36.578125 59.773438 35.9375 C 59.78125 35.910156 59.789062 35.882812 59.796875 35.855469 C 59.664062 35.757812 59.578125 35.597656 59.578125 35.425781 C 59.578125 35.132812 59.8125 34.898438 60.105469 34.898438 C 60.394531 34.898438 60.632812 35.132812 60.632812 35.425781 C 60.632812 35.574219 60.570312 35.710938 60.46875 35.808594 C 60.589844 35.976562 60.710938 36.097656 60.765625 36.144531 L 61.070312 35.753906 C 60.996094 35.660156 60.957031 35.546875 60.957031 35.425781 C 60.957031 35.132812 61.191406 34.898438 61.484375 34.898438 C 61.773438 34.898438 62.011719 35.132812 62.011719 35.425781 C 62.011719 35.71875 61.773438 35.953125 61.484375 35.953125 C 61.457031 35.953125 61.433594 35.953125 61.40625 35.949219 C 61.410156 36.308594 61.492188 36.65625 61.53125 36.8125 C 61.675781 36.539062 62.101562 36.105469 62.800781 35.53125 C 62.980469 35.382812 63.175781 35.230469 63.378906 35.070312 C 63.324219 34.988281 63.296875 34.890625 63.296875 34.785156 C 63.296875 34.492188 63.53125 34.253906 63.824219 34.253906 C 64.117188 34.253906 64.351562 34.492188 64.351562 34.785156 C 64.351562 35.078125 64.117188 35.3125 63.824219 35.3125 C 63.773438 35.3125 63.722656 35.308594 63.675781 35.292969 L 61.210938 39.976562 " fill-opacity="1" fill-rule="nonzero"/></g><g clip-path="url(#99a6483441)"><path fill="#f7be23" d="M 61.277344 40.410156 L 54.027344 40.410156 C 53.949219 40.410156 53.882812 40.347656 53.882812 40.265625 C 53.882812 40.1875 53.949219 40.121094 54.027344 40.121094 L 61.277344 40.121094 C 61.355469 40.121094 61.421875 40.1875 61.421875 40.265625 C 61.421875 40.347656 61.355469 40.410156 61.277344 40.410156 " fill-opacity="1" fill-rule="nonzero"/></g><g clip-path="url(#944caa118e)"><g clip-path="url(#30756a001d)"><path fill="#f7be23" d="M 79.398438 102.03125 L 109.28125 102.03125 L 109.28125 120.421875 L 79.398438 120.421875 Z M 79.398438 102.03125 " fill-opacity="1" fill-rule="nonzero"/></g></g></svg>